M48
;GenerationSoftware,Autodesk,EAGLE,9.6.2*%
;CreationDate,2023-07-19T21:29:16Z*%
FMAT,2
ICI,OFF
METRIC,TZ,000.000
T6C0.305
T5C0.400
T4C0.650
T3C1.000
T2C1.016
T1C3.302
%
G90
M71
T1
X60960Y150876
X2540Y150876
X60960Y105156
X2540Y105156
X60960Y48260
X2540Y48260
X60960Y2540
X2540Y2540
X136144Y99568
X77724Y99568
X136144Y53848
X77724Y53848
X136144Y48260
X77724Y48260
X136144Y2540
X77724Y2540
X136144Y150876
X77724Y150876
X136144Y105156
X77724Y105156
X60960Y99568
X2540Y99568
X60960Y53848
X2540Y53848
T2
X33020Y1270
X131064Y103886
X43180Y103886
X45720Y103886
X48260Y103886
X50800Y103886
X53340Y103886
X55880Y103886
X113284Y103886
X110744Y103886
X84074Y125476
X84074Y122936
X90424Y103886
X92964Y103886
X95504Y103886
X98044Y103886
X20320Y52578
X100584Y103886
X103124Y103886
X105664Y103886
X108204Y103886
X85344Y103886
X87884Y103886
X92964Y152146
X95504Y152146
X98044Y152146
X100584Y152146
X103124Y152146
X105664Y152146
X38100Y1270
X35560Y1270
X8890Y22860
X8890Y20320
X15240Y1270
X17780Y1270
X20320Y1270
X22860Y1270
X25400Y1270
X27940Y1270
X30480Y1270
X108204Y152146
X10160Y1270
X12700Y1270
X17780Y49530
X20320Y49530
X22860Y49530
X25400Y49530
X27940Y49530
X30480Y49530
X33020Y49530
X35560Y49530
X38100Y49530
X40640Y49530
X40640Y1270
X43180Y1270
X45720Y1270
X48260Y1270
X50800Y1270
X53340Y1270
X55880Y1270
X110744Y152146
X113284Y152146
X115824Y152146
X115824Y103886
X113284Y1270
X110744Y1270
X84074Y22860
X84074Y20320
X90424Y1270
X92964Y1270
X95504Y1270
X98044Y1270
X100584Y1270
X103124Y1270
X105664Y1270
X108204Y1270
X85344Y1270
X87884Y1270
X92964Y49530
X95504Y49530
X98044Y49530
X100584Y49530
X103124Y49530
X105664Y49530
X108204Y49530
X110744Y49530
X113284Y49530
X115824Y49530
X115824Y1270
X118364Y1270
X120904Y1270
X123444Y1270
X125984Y1270
X128524Y1270
X131064Y1270
X118364Y103886
X120904Y103886
X123444Y103886
X125984Y103886
X38100Y52578
X35560Y52578
X8890Y74168
X8890Y71628
X15240Y52578
X17780Y52578
X128524Y103886
X22860Y52578
X25400Y52578
X27940Y52578
X30480Y52578
X33020Y52578
X10160Y52578
X12700Y52578
X17780Y100838
X20320Y100838
X22860Y100838
X25400Y100838
X27940Y100838
X30480Y100838
X33020Y100838
X35560Y100838
X38100Y100838
X40640Y100838
X40640Y52578
X43180Y52578
X45720Y52578
X48260Y52578
X50800Y52578
X53340Y52578
X55880Y52578
X113284Y52578
X110744Y52578
X84074Y74168
X84074Y71628
X90424Y52578
X92964Y52578
X95504Y52578
X98044Y52578
X100584Y52578
X103124Y52578
X105664Y52578
X108204Y52578
X85344Y52578
X87884Y52578
X92964Y100838
X95504Y100838
X98044Y100838
X100584Y100838
X103124Y100838
X105664Y100838
X108204Y100838
X110744Y100838
X113284Y100838
X115824Y100838
X115824Y52578
X118364Y52578
X120904Y52578
X123444Y52578
X125984Y52578
X128524Y52578
X131064Y52578
X38100Y103886
X35560Y103886
X8890Y125476
X8890Y122936
X15240Y103886
X17780Y103886
X20320Y103886
X22860Y103886
X25400Y103886
X27940Y103886
X30480Y103886
X33020Y103886
X10160Y103886
X12700Y103886
X17780Y152146
X20320Y152146
X22860Y152146
X25400Y152146
X27940Y152146
X30480Y152146
X33020Y152146
X35560Y152146
X38100Y152146
X40640Y152146
X40640Y103886
T3
X78994Y32510
X3810Y32510
X3810Y40510
X78994Y40510
X3810Y83818
X3810Y91818
X78994Y91818
X3810Y135126
X3810Y143126
X78994Y135126
X78994Y143126
X78994Y83818
T4
X4905Y7270
X80089Y13050
X80089Y7270
X4905Y13050
X4905Y64358
X4905Y58578
X80089Y64358
X80089Y58578
X4905Y115666
X4905Y109886
X80089Y115666
X80089Y109886
T5
X5435Y5842
X5435Y14478
X1255Y5842
X76439Y14478
X76439Y5842
X80619Y5842
X80619Y14478
X1255Y65786
X1255Y57150
X5435Y57150
X5435Y65786
X1255Y117094
X1255Y108458
X5435Y108458
X76439Y117094
X1255Y14478
X80619Y108458
X80619Y117094
X5435Y117094
X80619Y65786
X76439Y65786
X76439Y57150
X80619Y57150
X76439Y108458
T6
X132334Y17780
X134874Y11430
X133604Y11430
X136144Y11430
X136144Y13970
X134874Y13970
X133604Y13970
X133604Y16510
X134874Y16510
X136144Y16510
X136144Y19050
X136144Y31750
X134874Y31750
X133604Y31750
X132334Y33020
X133604Y34163
X134874Y34163
X136144Y34163
X136144Y36957
X134874Y36957
X133604Y36957
X132334Y38100
X133604Y39370
X134874Y39370
X136144Y39370
X132334Y31750
X128143Y48514
X128143Y46736
X128143Y44450
X77724Y27940
X115189Y13335
X115189Y15240
X116586Y15240
X115189Y10287
X115189Y12065
X124714Y10160
X122809Y10160
X125349Y15875
X125349Y17145
X124079Y17145
X124079Y15875
X125349Y14605
X125349Y13335
X124079Y20955
X124079Y19685
X124079Y18415
X122174Y35560
X122174Y34290
X122174Y33020
X122174Y31750
X122174Y30480
X122174Y29210
X122174Y27940
X122174Y26670
X127254Y26670
X127254Y27940
X127254Y29210
X127254Y33020
X127254Y31750
X127254Y30480
X127254Y34290
X127254Y36830
X127254Y38100
X127254Y39370
X125984Y40640
X124714Y40640
X122174Y40640
X120904Y35560
X112649Y37465
X112649Y38608
X109474Y40640
X110744Y40640
X107696Y40640
X106934Y35560
X105664Y35560
X104394Y35560
X101219Y37465
X105029Y38735
X106299Y38735
X103759Y38735
X102489Y38735
X102489Y37465
X103759Y37465
X105029Y37465
X106299Y37465
X108204Y35560
X109474Y35560
X110744Y35560
X99949Y36195
X98679Y36195
X98679Y37465
X98679Y38735
X97282Y38735
X97282Y37465
X97282Y36195
X101219Y38735
X101219Y40005
X102489Y40005
X103759Y40005
X105029Y40005
X106299Y40005
X128397Y18415
X128016Y16383
X130302Y14351
X99949Y17145
X98679Y17145
X98679Y18415
X99949Y18415
X98679Y15875
X99949Y15875
X98679Y14605
X102489Y13335
X103759Y13335
X106299Y13335
X110109Y13335
X93853Y39116
X90932Y38227
X98679Y31115
X98679Y29845
X99949Y29845
X99949Y32258
X98679Y32258
X98679Y26035
X94869Y41275
X88265Y8128
X115189Y37465
X116459Y37465
X121539Y37465
X121539Y38735
X122809Y38735
X122809Y37465
X124079Y37465
X125349Y37465
X124079Y36195
X124079Y34925
X124079Y33655
X125349Y33655
X124079Y32385
X124079Y31115
X124079Y29845
X124079Y28575
X124079Y27305
X124079Y38735
X125349Y38735
X116459Y38735
X120269Y38735
X82611Y9210
X82665Y11037
X90424Y11646
X90424Y13716
X96774Y24130
X96774Y44450
X95504Y19050
X117221Y28575
X95542Y28575
X119761Y47625
X119634Y45720
X119761Y49530
X103124Y19812
X113919Y31750
X103124Y31750
X82804Y17780
X96774Y20320
X82572Y12932
X82677Y10160
X130429Y21217
X125984Y10160
X98044Y44831
X96736Y25400
X131318Y23368
X122174Y21590
X118364Y17018
X90932Y34544
X94872Y40386
X90424Y44450
X94908Y42203
X122174Y19050
X119634Y17780
X112903Y21590
X114681Y40640
X114681Y43180
X82804Y27940
X86614Y24130
X112014Y27305
X87884Y37719
X92967Y39457
X90932Y39878
X92964Y36830
X120269Y43561
X116967Y46990
X124079Y48514
X106934Y5080
X109474Y10160
X76835Y23437
X112014Y8890
X76835Y21659
X81493Y16342
X110744Y9525
X76835Y19881
X113284Y8255
X76835Y18103
X114173Y20320
X114808Y18923
X95504Y6350
X101854Y45085
X101892Y31115
X94742Y29210
X87884Y34290
X120904Y15240
X113284Y15240
X120269Y41021
X117729Y35573
X19050Y62738
X21971Y84328
X46990Y74803
X44209Y84328
X54102Y76073
X57658Y70815
X5080Y97028
X19685Y86106
X19685Y82550
X16002Y77978
X16002Y76073
X13970Y70358
X12700Y70358
X11938Y68326
X4572Y67564
X12192Y65278
X14478Y67056
X13081Y62865
X6985Y65405
X7112Y58166
X12192Y57658
X59690Y70358
X58420Y70358
X57150Y69088
X59690Y62738
X58420Y62738
X60960Y62738
X60960Y65278
X59690Y65278
X58420Y65278
X58420Y67818
X59690Y67818
X60960Y67818
X60960Y70358
X60960Y83058
X59690Y83058
X58420Y83058
X57150Y84328
X58420Y85471
X59690Y85471
X60960Y85471
X60960Y88265
X59690Y88265
X58420Y88265
X57150Y89408
X58420Y90678
X59690Y90678
X60960Y90678
X57150Y83058
X52959Y99822
X52959Y98044
X52959Y95758
X2540Y79248
X40005Y64643
X40005Y66548
X41402Y66548
X40005Y61595
X40005Y63373
X49530Y61468
X47625Y61468
X50165Y67183
X50165Y68453
X48895Y68453
X48895Y67183
X50165Y65913
X50165Y64643
X48895Y72263
X48895Y70993
X48895Y69723
X46990Y86868
X46990Y85598
X46990Y84328
X46990Y83058
X46990Y81788
X46990Y80518
X46990Y79248
X46990Y77978
X52070Y77978
X52070Y79248
X52070Y80518
X52070Y84328
X52070Y83058
X52070Y81788
X52070Y85598
X52070Y88138
X52070Y89408
X52070Y90678
X50800Y91948
X49530Y91948
X46990Y91948
X45720Y86868
X37465Y88773
X37465Y89916
X34290Y91948
X35560Y91948
X32512Y91948
X31750Y86868
X30480Y86868
X29210Y86868
X26035Y88773
X29845Y90043
X31115Y90043
X28575Y90043
X27305Y90043
X27305Y88773
X28575Y88773
X29845Y88773
X31115Y88773
X33020Y86868
X34290Y86868
X35560Y86868
X24765Y87503
X23495Y87503
X23495Y88773
X23495Y90043
X22098Y90043
X22098Y88773
X22098Y87503
X26035Y90043
X26035Y91313
X27305Y91313
X28575Y91313
X29845Y91313
X31115Y91313
X53213Y69723
X52832Y67691
X55118Y65659
X24765Y68453
X23495Y68453
X23495Y69723
X24765Y69723
X23495Y67183
X24765Y67183
X23495Y65913
X27305Y64643
X28575Y64643
X31115Y64643
X34925Y64643
X18669Y90424
X15748Y89535
X23495Y82423
X23495Y81153
X24765Y81153
X24765Y83566
X23495Y83566
X23495Y77343
X19685Y92583
X13081Y59436
X40005Y88773
X41275Y88773
X46355Y88773
X46355Y90043
X47625Y90043
X47625Y88773
X48895Y88773
X50165Y88773
X48895Y87503
X48895Y86233
X48895Y84963
X50165Y84963
X48895Y83693
X48895Y82423
X48895Y81153
X48895Y79883
X48895Y78613
X48895Y90043
X50165Y90043
X41275Y90043
X45085Y90043
X7427Y60518
X7481Y62345
X15240Y62954
X15240Y65024
X21590Y75438
X21590Y95758
X20320Y70358
X42037Y79883
X20358Y79883
X44577Y98933
X44450Y97028
X44577Y100838
X27940Y71120
X38735Y83058
X27940Y83058
X7620Y69088
X21590Y71628
X7388Y64240
X7493Y61468
X55245Y72525
X50800Y61468
X22860Y96139
X21552Y76708
X56134Y74676
X46990Y72898
X43180Y68326
X15748Y85852
X19688Y91694
X15240Y95758
X19724Y93511
X46990Y70358
X44450Y69088
X37719Y72898
X39497Y91948
X39497Y94488
X7620Y79248
X11430Y75438
X36830Y78613
X12700Y89027
X17783Y90765
X15748Y91186
X17780Y88138
X45085Y94869
X41783Y98298
X48895Y99822
X31750Y56388
X34290Y61468
X1651Y74745
X36830Y60198
X1651Y72967
X6309Y67650
X35560Y60833
X1651Y71189
X38100Y59563
X1651Y69411
X38989Y71628
X39624Y70231
X20320Y57658
X26670Y96393
X26708Y82423
X19558Y80518
X12700Y85598
X45720Y66548
X38100Y66548
X45085Y92329
X42545Y86881
X94234Y62738
X97155Y84328
X122174Y74803
X119393Y84328
X129286Y76073
X132842Y70815
X80264Y97028
X94869Y86106
X94869Y82550
X91186Y77978
X91186Y76073
X89154Y70358
X87884Y70358
X87122Y68326
X79756Y67564
X87376Y65278
X89662Y67056
X88265Y62865
X82169Y65405
X82296Y58166
X87376Y57658
X134874Y70358
X133604Y70358
X132334Y69088
X134874Y62738
X133604Y62738
X136144Y62738
X136144Y65278
X134874Y65278
X133604Y65278
X133604Y67818
X134874Y67818
X136144Y67818
X136144Y70358
X136144Y83058
X134874Y83058
X133604Y83058
X132334Y84328
X133604Y85471
X134874Y85471
X136144Y85471
X136144Y88265
X134874Y88265
X133604Y88265
X132334Y89408
X133604Y90678
X134874Y90678
X136144Y90678
X132334Y83058
X128143Y99822
X128143Y98044
X128143Y95758
X77724Y79248
X115189Y64643
X115189Y66548
X116586Y66548
X115189Y61595
X115189Y63373
X124714Y61468
X122809Y61468
X125349Y67183
X125349Y68453
X124079Y68453
X124079Y67183
X125349Y65913
X125349Y64643
X124079Y72263
X124079Y70993
X124079Y69723
X122174Y86868
X122174Y85598
X122174Y84328
X122174Y83058
X122174Y81788
X122174Y80518
X122174Y79248
X122174Y77978
X127254Y77978
X127254Y79248
X127254Y80518
X127254Y84328
X127254Y83058
X127254Y81788
X127254Y85598
X127254Y88138
X127254Y89408
X127254Y90678
X125984Y91948
X124714Y91948
X122174Y91948
X120904Y86868
X112649Y88773
X112649Y89916
X109474Y91948
X110744Y91948
X107696Y91948
X106934Y86868
X105664Y86868
X104394Y86868
X101219Y88773
X105029Y90043
X106299Y90043
X103759Y90043
X102489Y90043
X102489Y88773
X103759Y88773
X105029Y88773
X106299Y88773
X108204Y86868
X109474Y86868
X110744Y86868
X99949Y87503
X98679Y87503
X98679Y88773
X98679Y90043
X97282Y90043
X97282Y88773
X97282Y87503
X101219Y90043
X101219Y91313
X102489Y91313
X103759Y91313
X105029Y91313
X106299Y91313
X128397Y69723
X128016Y67691
X130302Y65659
X99949Y68453
X98679Y68453
X17783Y39457
X99949Y69723
X98679Y67183
X99949Y67183
X98679Y65913
X102489Y64643
X103759Y64643
X106299Y64643
X110109Y64643
X93853Y90424
X90932Y89535
X98679Y82423
X98679Y81153
X99949Y81153
X99949Y83566
X98679Y83566
X98679Y77343
X94869Y92583
X88265Y59436
X115189Y88773
X116459Y88773
X121539Y88773
X121539Y90043
X122809Y90043
X122809Y88773
X124079Y88773
X125349Y88773
X124079Y87503
X124079Y86233
X124079Y84963
X125349Y84963
X124079Y83693
X124079Y82423
X124079Y81153
X124079Y79883
X124079Y78613
X124079Y90043
X125349Y90043
X116459Y90043
X120269Y90043
X82611Y60518
X82665Y62345
X90424Y62954
X90424Y65024
X96774Y75438
X96774Y95758
X95504Y70358
X117221Y79883
X95542Y79883
X119761Y98933
X119634Y97028
X119761Y100838
X103124Y71120
X113919Y83058
X103124Y83058
X82804Y69088
X96774Y71628
X82572Y64240
X82677Y61468
X130429Y72525
X125984Y61468
X98044Y96139
X96736Y76708
X131318Y74676
X122174Y72898
X118364Y68326
X90932Y85852
X94872Y91694
X90424Y95758
X94908Y93511
X122174Y70358
X119634Y69088
X112903Y72898
X114681Y91948
X114681Y94488
X82804Y79248
X86614Y75438
X112014Y78613
X87884Y89027
X92967Y90765
X90932Y91186
X92964Y88138
X120269Y94869
X116967Y98298
X124079Y99822
X106934Y56388
X109474Y61468
X76835Y74745
X112014Y60198
X76835Y72967
X81493Y67650
X110744Y60833
X76835Y71189
X113284Y59563
X76835Y69411
X114173Y71628
X114808Y70231
X95504Y57658
X101854Y96393
X101892Y82423
X94742Y80518
X87884Y85598
X120904Y66548
X113284Y66548
X120269Y92329
X117729Y86881
X19050Y114046
X21971Y135636
X46990Y126111
X44209Y135636
X54102Y127381
X57658Y122123
X5080Y148336
X19685Y137414
X19685Y133858
X16002Y129286
X16002Y127381
X13970Y121666
X12700Y121666
X11938Y119634
X4572Y118872
X12192Y116586
X14478Y118364
X13081Y114173
X6985Y116713
X7112Y109474
X12192Y108966
X59690Y121666
X58420Y121666
X57150Y120396
X59690Y114046
X58420Y114046
X60960Y114046
X60960Y116586
X59690Y116586
X58420Y116586
X58420Y119126
X59690Y119126
X60960Y119126
X60960Y121666
X60960Y134366
X59690Y134366
X58420Y134366
X57150Y135636
X58420Y136779
X59690Y136779
X60960Y136779
X60960Y139573
X59690Y139573
X58420Y139573
X57150Y140716
X58420Y141986
X59690Y141986
X60960Y141986
X57150Y134366
X52959Y151130
X52959Y149352
X52959Y147066
X2540Y130556
X40005Y115951
X40005Y117856
X41402Y117856
X40005Y112903
X40005Y114681
X49530Y112776
X47625Y112776
X50165Y118491
X50165Y119761
X48895Y119761
X48895Y118491
X50165Y117221
X50165Y115951
X48895Y123571
X48895Y122301
X48895Y121031
X46990Y138176
X46990Y136906
X46990Y135636
X46990Y134366
X46990Y133096
X46990Y131826
X46990Y130556
X46990Y129286
X52070Y129286
X52070Y130556
X52070Y131826
X52070Y135636
X52070Y134366
X52070Y133096
X52070Y136906
X52070Y139446
X52070Y140716
X52070Y141986
X50800Y143256
X49530Y143256
X46990Y143256
X45720Y138176
X37465Y140081
X37465Y141224
X34290Y143256
X35560Y143256
X32512Y143256
X31750Y138176
X30480Y138176
X29210Y138176
X26035Y140081
X29845Y141351
X31115Y141351
X28575Y141351
X27305Y141351
X27305Y140081
X28575Y140081
X29845Y140081
X31115Y140081
X33020Y138176
X34290Y138176
X35560Y138176
X24765Y138811
X23495Y138811
X23495Y140081
X23495Y141351
X22098Y141351
X22098Y140081
X22098Y138811
X26035Y141351
X26035Y142621
X27305Y142621
X28575Y142621
X29845Y142621
X31115Y142621
X53213Y121031
X52832Y118999
X55118Y116967
X24765Y119761
X23495Y119761
X23495Y121031
X24765Y121031
X23495Y118491
X24765Y118491
X23495Y117221
X27305Y115951
X28575Y115951
X31115Y115951
X34925Y115951
X18669Y141732
X15748Y140843
X23495Y133731
X23495Y132461
X24765Y132461
X24765Y134874
X23495Y134874
X23495Y128651
X19685Y143891
X13081Y110744
X40005Y140081
X41275Y140081
X46355Y140081
X46355Y141351
X47625Y141351
X47625Y140081
X48895Y140081
X50165Y140081
X48895Y138811
X48895Y137541
X48895Y136271
X50165Y136271
X48895Y135001
X48895Y133731
X48895Y132461
X48895Y131191
X48895Y129921
X48895Y141351
X50165Y141351
X41275Y141351
X45085Y141351
X7427Y111826
X7481Y113653
X15240Y114262
X15240Y116332
X21590Y126746
X21590Y147066
X20320Y121666
X42037Y131191
X20358Y131191
X44577Y150241
X44450Y148336
X44577Y152146
X27940Y122428
X38735Y134366
X27940Y134366
X7620Y120396
X21590Y122936
X7388Y115548
X7493Y112776
X55245Y123833
X50800Y112776
X22860Y147447
X21552Y128016
X56134Y125984
X46990Y124206
X43180Y119634
X15748Y137160
X19688Y143002
X15240Y147066
X19724Y144819
X46990Y121666
X44450Y120396
X37719Y124206
X39497Y143256
X39497Y145796
X7620Y130556
X11430Y126746
X36830Y129921
X12700Y140335
X17783Y142073
X15748Y142494
X17780Y139446
X45085Y146177
X41783Y149606
X48895Y151130
X31750Y107696
X34290Y112776
X1651Y126053
X36830Y111506
X1651Y124275
X6309Y118958
X35560Y112141
X1651Y122497
X38100Y110871
X1651Y120719
X38989Y122936
X39624Y121539
X20320Y108966
X26670Y147701
X26708Y133731
X19558Y131826
X12700Y136906
X45720Y117856
X38100Y117856
X45085Y143637
X42545Y138189
X94234Y114046
X97155Y135636
X122174Y126111
X119393Y135636
X129286Y127381
X132842Y122123
X80264Y148336
X94869Y137414
X94869Y133858
X91186Y129286
X91186Y127381
X89154Y121666
X87884Y121666
X87122Y119634
X79756Y118872
X87376Y116586
X89662Y118364
X88265Y114173
X82169Y116713
X82296Y109474
X87376Y108966
X134874Y121666
X133604Y121666
X132334Y120396
X134874Y114046
X133604Y114046
X136144Y114046
X136144Y116586
X134874Y116586
X133604Y116586
X133604Y119126
X134874Y119126
X136144Y119126
X136144Y121666
X136144Y134366
X134874Y134366
X133604Y134366
X132334Y135636
X133604Y136779
X134874Y136779
X136144Y136779
X136144Y139573
X134874Y139573
X133604Y139573
X132334Y140716
X133604Y141986
X134874Y141986
X136144Y141986
X132334Y134366
X128143Y151130
X128143Y149352
X128143Y147066
X77724Y130556
X115189Y115951
X115189Y117856
X116586Y117856
X115189Y112903
X115189Y114681
X124714Y112776
X122809Y112776
X125349Y118491
X125349Y119761
X124079Y119761
X124079Y118491
X125349Y117221
X125349Y115951
X124079Y123571
X124079Y122301
X124079Y121031
X122174Y138176
X122174Y136906
X122174Y135636
X122174Y134366
X122174Y133096
X122174Y131826
X122174Y130556
X19050Y11430
X127254Y129286
X127254Y130556
X127254Y131826
X127254Y135636
X127254Y134366
X127254Y133096
X127254Y136906
X127254Y139446
X127254Y140716
X127254Y141986
X125984Y143256
X124714Y143256
X122174Y143256
X120904Y138176
X112649Y140081
X112649Y141224
X109474Y143256
X110744Y143256
X107696Y143256
X106934Y138176
X105664Y138176
X104394Y138176
X101219Y140081
X105029Y141351
X106299Y141351
X103759Y141351
X102489Y141351
X102489Y140081
X103759Y140081
X105029Y140081
X106299Y140081
X108204Y138176
X109474Y138176
X110744Y138176
X99949Y138811
X98679Y138811
X98679Y140081
X98679Y141351
X97282Y141351
X97282Y140081
X97282Y138811
X101219Y141351
X101219Y142621
X102489Y142621
X103759Y142621
X105029Y142621
X106299Y142621
X128397Y121031
X128016Y118999
X130302Y116967
X99949Y119761
X98679Y119761
X98679Y121031
X99949Y121031
X98679Y118491
X99949Y118491
X98679Y117221
X102489Y115951
X103759Y115951
X106299Y115951
X110109Y115951
X93853Y141732
X90932Y140843
X98679Y133731
X98679Y132461
X99949Y132461
X99949Y134874
X98679Y134874
X98679Y128651
X94869Y143891
X88265Y110744
X115189Y140081
X116459Y140081
X121539Y140081
X121539Y141351
X122809Y141351
X122809Y140081
X124079Y140081
X125349Y140081
X124079Y138811
X124079Y137541
X124079Y136271
X125349Y136271
X124079Y135001
X124079Y133731
X124079Y132461
X124079Y131191
X124079Y129921
X124079Y141351
X125349Y141351
X116459Y141351
X120269Y141351
X82611Y111826
X82665Y113653
X90424Y114262
X90424Y116332
X96774Y126746
X96774Y147066
X95504Y121666
X117221Y131191
X95542Y131191
X119761Y150241
X119634Y148336
X119761Y152146
X103124Y122428
X113919Y134366
X103124Y134366
X82804Y120396
X96774Y122936
X82572Y115548
X82677Y112776
X130429Y123833
X125984Y112776
X98044Y147447
X96736Y128016
X131318Y125984
X122174Y124206
X118364Y119634
X90932Y137160
X94872Y143002
X90424Y147066
X94908Y144819
X122174Y121666
X119634Y120396
X112903Y124206
X114681Y143256
X114681Y145796
X82804Y130556
X86614Y126746
X112014Y129921
X87884Y140335
X92967Y142073
X90932Y142494
X92964Y139446
X120269Y146177
X116967Y149606
X124079Y151130
X106934Y107696
X109474Y112776
X76835Y126053
X112014Y111506
X76835Y124275
X81493Y118958
X110744Y112141
X76835Y122497
X113284Y110871
X76835Y120719
X114173Y122936
X114808Y121539
X95504Y108966
X101854Y147701
X101892Y133731
X94742Y131826
X87884Y136906
X120904Y117856
X113284Y117856
X120269Y143637
X117729Y138189
X21971Y33020
X46990Y23495
X44209Y33020
X54102Y24765
X57658Y19507
X5080Y45720
X19685Y34798
X19685Y31242
X16002Y26670
X16002Y24765
X13970Y19050
X12700Y19050
X11938Y17018
X4572Y16256
X12192Y13970
X14478Y15748
X13081Y11557
X6985Y14097
X7112Y6858
X12192Y6350
X59690Y19050
X58420Y19050
X57150Y17780
X59690Y11430
X58420Y11430
X60960Y11430
X60960Y13970
X59690Y13970
X58420Y13970
X58420Y16510
X59690Y16510
X60960Y16510
X60960Y19050
X60960Y31750
X59690Y31750
X58420Y31750
X57150Y33020
X58420Y34163
X59690Y34163
X60960Y34163
X60960Y36957
X59690Y36957
X58420Y36957
X57150Y38100
X58420Y39370
X59690Y39370
X60960Y39370
X57150Y31750
X52959Y48514
X98679Y69723
X52959Y46736
X52959Y44450
X2540Y27940
X40005Y13335
X40005Y15240
X41402Y15240
X40005Y10287
X40005Y12065
X49530Y10160
X47625Y10160
X50165Y15875
X50165Y17145
X48895Y17145
X48895Y15875
X50165Y14605
X50165Y13335
X48895Y20955
X48895Y19685
X48895Y18415
X46990Y35560
X46990Y34290
X46990Y33020
X46990Y31750
X46990Y30480
X46990Y29210
X46990Y27940
X46990Y26670
X52070Y26670
X52070Y27940
X52070Y29210
X52070Y33020
X52070Y31750
X52070Y30480
X52070Y34290
X52070Y36830
X52070Y38100
X52070Y39370
X50800Y40640
X49530Y40640
X46990Y40640
X45720Y35560
X37465Y37465
X37465Y38608
X34290Y40640
X35560Y40640
X32512Y40640
X31750Y35560
X30480Y35560
X29210Y35560
X26035Y37465
X29845Y38735
X31115Y38735
X28575Y38735
X27305Y38735
X27305Y37465
X28575Y37465
X29845Y37465
X31115Y37465
X33020Y35560
X34290Y35560
X35560Y35560
X24765Y36195
X23495Y36195
X23495Y37465
X23495Y38735
X22098Y38735
X22098Y37465
X22098Y36195
X26035Y38735
X26035Y40005
X27305Y40005
X28575Y40005
X29845Y40005
X31115Y40005
X53213Y18415
X52832Y16383
X55118Y14351
X24765Y17145
X23495Y17145
X23495Y18415
X24765Y18415
X23495Y15875
X24765Y15875
X23495Y14605
X27305Y13335
X28575Y13335
X31115Y13335
X34925Y13335
X18669Y39116
X15748Y38227
X23495Y31115
X23495Y29845
X24765Y29845
X24765Y32258
X23495Y32258
X23495Y26035
X19685Y41275
X13081Y8128
X40005Y37465
X41275Y37465
X46355Y37465
X46355Y38735
X47625Y38735
X47625Y37465
X48895Y37465
X50165Y37465
X48895Y36195
X48895Y34925
X48895Y33655
X50165Y33655
X48895Y32385
X48895Y31115
X48895Y29845
X48895Y28575
X48895Y27305
X48895Y38735
X50165Y38735
X41275Y38735
X45085Y38735
X7427Y9210
X7481Y11037
X15240Y11646
X15240Y13716
X21590Y24130
X21590Y44450
X20320Y19050
X42037Y28575
X20358Y28575
X44577Y47625
X44450Y45720
X44577Y49530
X27940Y19812
X38735Y31750
X27940Y31750
X7620Y17780
X21590Y20320
X7388Y12932
X7493Y10160
X55245Y21217
X50800Y10160
X22860Y44831
X21552Y25400
X56134Y23368
X46990Y21590
X43180Y17018
X15748Y34544
X19688Y40386
X15240Y44450
X19724Y42203
X46990Y19050
X44450Y17780
X37719Y21590
X39497Y40640
X39497Y43180
X7620Y27940
X11430Y24130
X36830Y27305
X12700Y37719
X15748Y39878
X17780Y36830
X45085Y43561
X41783Y46990
X48895Y48514
X31750Y5080
X34290Y10160
X1651Y23437
X36830Y8890
X1651Y21659
X6309Y16342
X35560Y9525
X1651Y19881
X38100Y8255
X1651Y18103
X38989Y20320
X39624Y18923
X20320Y6350
X26670Y45085
X26708Y31115
X19558Y29210
X12700Y34290
X45720Y15240
X38100Y15240
X45085Y41021
X42545Y35573
X94234Y11430
X97155Y33020
X122174Y23495
X119393Y33020
X129286Y24765
X132842Y19507
X80264Y45720
X94869Y34798
X94869Y31242
X91186Y26670
X91186Y24765
X89154Y19050
X87884Y19050
X87122Y17018
X79756Y16256
X87376Y13970
X89662Y15748
X88265Y11557
X82169Y14097
X82296Y6858
X87376Y6350
X134874Y19050
X133604Y19050
X122174Y129286
M30