G04 EAGLE Gerber RS-274X export*
G75*
%MOMM*%
%FSLAX34Y34*%
%LPD*%
%INSoldermask Bottom*%
%IPPOS*%
%AMOC8*
5,1,8,0,0,1.08239X$1,22.5*%
G01*
%ADD10C,0.787400*%
%ADD11C,0.802400*%
%ADD12C,0.264381*%
%ADD13C,0.251966*%
%ADD14C,3.454400*%
%ADD15C,2.032000*%
%ADD16C,1.152400*%
%ADD17C,0.252575*%
%ADD18C,1.270000*%
%ADD19C,1.652400*%

G36*
X95569Y726452D02*
X95569Y726452D01*
X95635Y726454D01*
X95678Y726472D01*
X95725Y726480D01*
X95782Y726514D01*
X95842Y726539D01*
X95877Y726570D01*
X95918Y726595D01*
X95960Y726646D01*
X96008Y726690D01*
X96030Y726732D01*
X96059Y726769D01*
X96080Y726831D01*
X96111Y726890D01*
X96119Y726944D01*
X96131Y726981D01*
X96130Y727021D01*
X96138Y727075D01*
X96138Y730885D01*
X96127Y730950D01*
X96125Y731016D01*
X96107Y731059D01*
X96099Y731106D01*
X96065Y731163D01*
X96040Y731223D01*
X96009Y731258D01*
X95984Y731299D01*
X95933Y731341D01*
X95889Y731389D01*
X95847Y731411D01*
X95810Y731440D01*
X95748Y731461D01*
X95689Y731492D01*
X95635Y731500D01*
X95598Y731512D01*
X95558Y731511D01*
X95504Y731519D01*
X82296Y731519D01*
X82231Y731508D01*
X82165Y731506D01*
X82122Y731488D01*
X82075Y731480D01*
X82018Y731446D01*
X81958Y731421D01*
X81923Y731390D01*
X81882Y731365D01*
X81841Y731314D01*
X81792Y731270D01*
X81770Y731228D01*
X81741Y731191D01*
X81720Y731129D01*
X81689Y731070D01*
X81681Y731016D01*
X81669Y730979D01*
X81669Y730975D01*
X81669Y730974D01*
X81670Y730939D01*
X81662Y730885D01*
X81662Y727075D01*
X81673Y727010D01*
X81675Y726944D01*
X81693Y726901D01*
X81701Y726854D01*
X81735Y726797D01*
X81760Y726737D01*
X81791Y726702D01*
X81816Y726661D01*
X81867Y726620D01*
X81911Y726571D01*
X81953Y726549D01*
X81990Y726520D01*
X82052Y726499D01*
X82111Y726468D01*
X82165Y726460D01*
X82202Y726448D01*
X82242Y726449D01*
X82296Y726441D01*
X95504Y726441D01*
X95569Y726452D01*
G37*
G36*
X761049Y726452D02*
X761049Y726452D01*
X761115Y726454D01*
X761158Y726472D01*
X761205Y726480D01*
X761262Y726514D01*
X761322Y726539D01*
X761357Y726570D01*
X761398Y726595D01*
X761440Y726646D01*
X761488Y726690D01*
X761510Y726732D01*
X761539Y726769D01*
X761560Y726831D01*
X761591Y726890D01*
X761599Y726944D01*
X761611Y726981D01*
X761610Y727021D01*
X761618Y727075D01*
X761618Y730885D01*
X761607Y730950D01*
X761605Y731016D01*
X761587Y731059D01*
X761579Y731106D01*
X761545Y731163D01*
X761520Y731223D01*
X761489Y731258D01*
X761464Y731299D01*
X761413Y731341D01*
X761369Y731389D01*
X761327Y731411D01*
X761290Y731440D01*
X761228Y731461D01*
X761169Y731492D01*
X761115Y731500D01*
X761078Y731512D01*
X761038Y731511D01*
X760984Y731519D01*
X747776Y731519D01*
X747711Y731508D01*
X747645Y731506D01*
X747602Y731488D01*
X747555Y731480D01*
X747498Y731446D01*
X747438Y731421D01*
X747403Y731390D01*
X747362Y731365D01*
X747321Y731314D01*
X747272Y731270D01*
X747250Y731228D01*
X747221Y731191D01*
X747200Y731129D01*
X747169Y731070D01*
X747161Y731016D01*
X747149Y730979D01*
X747149Y730975D01*
X747149Y730974D01*
X747150Y730939D01*
X747142Y730885D01*
X747142Y727075D01*
X747153Y727010D01*
X747155Y726944D01*
X747173Y726901D01*
X747181Y726854D01*
X747215Y726797D01*
X747240Y726737D01*
X747271Y726702D01*
X747296Y726661D01*
X747347Y726620D01*
X747391Y726571D01*
X747433Y726549D01*
X747470Y726520D01*
X747532Y726499D01*
X747591Y726468D01*
X747645Y726460D01*
X747682Y726448D01*
X747722Y726449D01*
X747776Y726441D01*
X760984Y726441D01*
X761049Y726452D01*
G37*
G36*
X761049Y213372D02*
X761049Y213372D01*
X761115Y213374D01*
X761158Y213392D01*
X761205Y213400D01*
X761262Y213434D01*
X761322Y213459D01*
X761357Y213490D01*
X761398Y213515D01*
X761440Y213566D01*
X761488Y213610D01*
X761510Y213652D01*
X761539Y213689D01*
X761560Y213751D01*
X761591Y213810D01*
X761599Y213864D01*
X761611Y213901D01*
X761610Y213941D01*
X761618Y213995D01*
X761618Y217805D01*
X761607Y217870D01*
X761605Y217936D01*
X761587Y217979D01*
X761579Y218026D01*
X761545Y218083D01*
X761520Y218143D01*
X761489Y218178D01*
X761464Y218219D01*
X761413Y218261D01*
X761369Y218309D01*
X761327Y218331D01*
X761290Y218360D01*
X761228Y218381D01*
X761169Y218412D01*
X761115Y218420D01*
X761078Y218432D01*
X761038Y218431D01*
X760984Y218439D01*
X747776Y218439D01*
X747711Y218428D01*
X747645Y218426D01*
X747602Y218408D01*
X747555Y218400D01*
X747498Y218366D01*
X747438Y218341D01*
X747403Y218310D01*
X747362Y218285D01*
X747321Y218234D01*
X747272Y218190D01*
X747250Y218148D01*
X747221Y218111D01*
X747200Y218049D01*
X747169Y217990D01*
X747161Y217936D01*
X747149Y217899D01*
X747149Y217895D01*
X747149Y217894D01*
X747150Y217859D01*
X747142Y217805D01*
X747142Y213995D01*
X747153Y213930D01*
X747155Y213864D01*
X747173Y213821D01*
X747181Y213774D01*
X747215Y213717D01*
X747240Y213657D01*
X747271Y213622D01*
X747296Y213581D01*
X747347Y213540D01*
X747391Y213491D01*
X747433Y213469D01*
X747470Y213440D01*
X747532Y213419D01*
X747591Y213388D01*
X747645Y213380D01*
X747682Y213368D01*
X747722Y213369D01*
X747776Y213361D01*
X760984Y213361D01*
X761049Y213372D01*
G37*
G36*
X95569Y213372D02*
X95569Y213372D01*
X95635Y213374D01*
X95678Y213392D01*
X95725Y213400D01*
X95782Y213434D01*
X95842Y213459D01*
X95877Y213490D01*
X95918Y213515D01*
X95960Y213566D01*
X96008Y213610D01*
X96030Y213652D01*
X96059Y213689D01*
X96080Y213751D01*
X96111Y213810D01*
X96119Y213864D01*
X96131Y213901D01*
X96130Y213941D01*
X96138Y213995D01*
X96138Y217805D01*
X96127Y217870D01*
X96125Y217936D01*
X96107Y217979D01*
X96099Y218026D01*
X96065Y218083D01*
X96040Y218143D01*
X96009Y218178D01*
X95984Y218219D01*
X95933Y218261D01*
X95889Y218309D01*
X95847Y218331D01*
X95810Y218360D01*
X95748Y218381D01*
X95689Y218412D01*
X95635Y218420D01*
X95598Y218432D01*
X95558Y218431D01*
X95504Y218439D01*
X82296Y218439D01*
X82231Y218428D01*
X82165Y218426D01*
X82122Y218408D01*
X82075Y218400D01*
X82018Y218366D01*
X81958Y218341D01*
X81923Y218310D01*
X81882Y218285D01*
X81841Y218234D01*
X81792Y218190D01*
X81770Y218148D01*
X81741Y218111D01*
X81720Y218049D01*
X81689Y217990D01*
X81681Y217936D01*
X81669Y217899D01*
X81669Y217895D01*
X81669Y217894D01*
X81670Y217859D01*
X81662Y217805D01*
X81662Y213995D01*
X81673Y213930D01*
X81675Y213864D01*
X81693Y213821D01*
X81701Y213774D01*
X81735Y213717D01*
X81760Y213657D01*
X81791Y213622D01*
X81816Y213581D01*
X81867Y213540D01*
X81911Y213491D01*
X81953Y213469D01*
X81990Y213440D01*
X82052Y213419D01*
X82111Y213388D01*
X82165Y213380D01*
X82202Y213368D01*
X82242Y213369D01*
X82296Y213361D01*
X95504Y213361D01*
X95569Y213372D01*
G37*
G36*
X509335Y73672D02*
X509335Y73672D01*
X509401Y73674D01*
X509444Y73692D01*
X509491Y73700D01*
X509548Y73734D01*
X509608Y73759D01*
X509643Y73790D01*
X509684Y73815D01*
X509726Y73866D01*
X509774Y73910D01*
X509796Y73952D01*
X509825Y73989D01*
X509846Y74051D01*
X509877Y74110D01*
X509885Y74164D01*
X509897Y74201D01*
X509896Y74241D01*
X509904Y74295D01*
X509904Y78105D01*
X509893Y78170D01*
X509891Y78236D01*
X509873Y78279D01*
X509865Y78326D01*
X509831Y78383D01*
X509806Y78443D01*
X509775Y78478D01*
X509750Y78519D01*
X509699Y78561D01*
X509655Y78609D01*
X509613Y78631D01*
X509576Y78660D01*
X509514Y78681D01*
X509455Y78712D01*
X509401Y78720D01*
X509364Y78732D01*
X509324Y78731D01*
X509270Y78739D01*
X506730Y78739D01*
X506665Y78728D01*
X506599Y78726D01*
X506556Y78708D01*
X506509Y78700D01*
X506452Y78666D01*
X506392Y78641D01*
X506357Y78610D01*
X506316Y78585D01*
X506275Y78534D01*
X506226Y78490D01*
X506204Y78448D01*
X506175Y78411D01*
X506154Y78349D01*
X506123Y78290D01*
X506115Y78236D01*
X506103Y78199D01*
X506103Y78195D01*
X506103Y78194D01*
X506104Y78159D01*
X506096Y78105D01*
X506096Y74295D01*
X506107Y74230D01*
X506109Y74164D01*
X506127Y74121D01*
X506135Y74074D01*
X506169Y74017D01*
X506194Y73957D01*
X506225Y73922D01*
X506250Y73881D01*
X506301Y73840D01*
X506345Y73791D01*
X506387Y73769D01*
X506424Y73740D01*
X506486Y73719D01*
X506545Y73688D01*
X506599Y73680D01*
X506636Y73668D01*
X506676Y73669D01*
X506730Y73661D01*
X509270Y73661D01*
X509335Y73672D01*
G37*
G36*
X1174815Y586752D02*
X1174815Y586752D01*
X1174881Y586754D01*
X1174924Y586772D01*
X1174971Y586780D01*
X1175028Y586814D01*
X1175088Y586839D01*
X1175123Y586870D01*
X1175164Y586895D01*
X1175206Y586946D01*
X1175254Y586990D01*
X1175276Y587032D01*
X1175305Y587069D01*
X1175326Y587131D01*
X1175357Y587190D01*
X1175365Y587244D01*
X1175377Y587281D01*
X1175376Y587321D01*
X1175384Y587375D01*
X1175384Y591185D01*
X1175373Y591250D01*
X1175371Y591316D01*
X1175353Y591359D01*
X1175345Y591406D01*
X1175311Y591463D01*
X1175286Y591523D01*
X1175255Y591558D01*
X1175230Y591599D01*
X1175179Y591641D01*
X1175135Y591689D01*
X1175093Y591711D01*
X1175056Y591740D01*
X1174994Y591761D01*
X1174935Y591792D01*
X1174881Y591800D01*
X1174844Y591812D01*
X1174804Y591811D01*
X1174750Y591819D01*
X1172210Y591819D01*
X1172145Y591808D01*
X1172079Y591806D01*
X1172036Y591788D01*
X1171989Y591780D01*
X1171932Y591746D01*
X1171872Y591721D01*
X1171837Y591690D01*
X1171796Y591665D01*
X1171755Y591614D01*
X1171706Y591570D01*
X1171684Y591528D01*
X1171655Y591491D01*
X1171634Y591429D01*
X1171603Y591370D01*
X1171595Y591316D01*
X1171583Y591279D01*
X1171583Y591275D01*
X1171583Y591274D01*
X1171584Y591239D01*
X1171576Y591185D01*
X1171576Y587375D01*
X1171587Y587310D01*
X1171589Y587244D01*
X1171607Y587201D01*
X1171615Y587154D01*
X1171649Y587097D01*
X1171674Y587037D01*
X1171705Y587002D01*
X1171730Y586961D01*
X1171781Y586920D01*
X1171825Y586871D01*
X1171867Y586849D01*
X1171904Y586820D01*
X1171966Y586799D01*
X1172025Y586768D01*
X1172079Y586760D01*
X1172116Y586748D01*
X1172156Y586749D01*
X1172210Y586741D01*
X1174750Y586741D01*
X1174815Y586752D01*
G37*
G36*
X509335Y586752D02*
X509335Y586752D01*
X509401Y586754D01*
X509444Y586772D01*
X509491Y586780D01*
X509548Y586814D01*
X509608Y586839D01*
X509643Y586870D01*
X509684Y586895D01*
X509726Y586946D01*
X509774Y586990D01*
X509796Y587032D01*
X509825Y587069D01*
X509846Y587131D01*
X509877Y587190D01*
X509885Y587244D01*
X509897Y587281D01*
X509896Y587321D01*
X509904Y587375D01*
X509904Y591185D01*
X509893Y591250D01*
X509891Y591316D01*
X509873Y591359D01*
X509865Y591406D01*
X509831Y591463D01*
X509806Y591523D01*
X509775Y591558D01*
X509750Y591599D01*
X509699Y591641D01*
X509655Y591689D01*
X509613Y591711D01*
X509576Y591740D01*
X509514Y591761D01*
X509455Y591792D01*
X509401Y591800D01*
X509364Y591812D01*
X509324Y591811D01*
X509270Y591819D01*
X506730Y591819D01*
X506665Y591808D01*
X506599Y591806D01*
X506556Y591788D01*
X506509Y591780D01*
X506452Y591746D01*
X506392Y591721D01*
X506357Y591690D01*
X506316Y591665D01*
X506275Y591614D01*
X506226Y591570D01*
X506204Y591528D01*
X506175Y591491D01*
X506154Y591429D01*
X506123Y591370D01*
X506115Y591316D01*
X506103Y591279D01*
X506103Y591275D01*
X506103Y591274D01*
X506104Y591239D01*
X506096Y591185D01*
X506096Y587375D01*
X506107Y587310D01*
X506109Y587244D01*
X506127Y587201D01*
X506135Y587154D01*
X506169Y587097D01*
X506194Y587037D01*
X506225Y587002D01*
X506250Y586961D01*
X506301Y586920D01*
X506345Y586871D01*
X506387Y586849D01*
X506424Y586820D01*
X506486Y586799D01*
X506545Y586768D01*
X506599Y586760D01*
X506636Y586748D01*
X506676Y586749D01*
X506730Y586741D01*
X509270Y586741D01*
X509335Y586752D01*
G37*
G36*
X1174815Y73672D02*
X1174815Y73672D01*
X1174881Y73674D01*
X1174924Y73692D01*
X1174971Y73700D01*
X1175028Y73734D01*
X1175088Y73759D01*
X1175123Y73790D01*
X1175164Y73815D01*
X1175206Y73866D01*
X1175254Y73910D01*
X1175276Y73952D01*
X1175305Y73989D01*
X1175326Y74051D01*
X1175357Y74110D01*
X1175365Y74164D01*
X1175377Y74201D01*
X1175376Y74241D01*
X1175384Y74295D01*
X1175384Y78105D01*
X1175373Y78170D01*
X1175371Y78236D01*
X1175353Y78279D01*
X1175345Y78326D01*
X1175311Y78383D01*
X1175286Y78443D01*
X1175255Y78478D01*
X1175230Y78519D01*
X1175179Y78561D01*
X1175135Y78609D01*
X1175093Y78631D01*
X1175056Y78660D01*
X1174994Y78681D01*
X1174935Y78712D01*
X1174881Y78720D01*
X1174844Y78732D01*
X1174804Y78731D01*
X1174750Y78739D01*
X1172210Y78739D01*
X1172145Y78728D01*
X1172079Y78726D01*
X1172036Y78708D01*
X1171989Y78700D01*
X1171932Y78666D01*
X1171872Y78641D01*
X1171837Y78610D01*
X1171796Y78585D01*
X1171755Y78534D01*
X1171706Y78490D01*
X1171684Y78448D01*
X1171655Y78411D01*
X1171634Y78349D01*
X1171603Y78290D01*
X1171595Y78236D01*
X1171583Y78199D01*
X1171583Y78195D01*
X1171583Y78194D01*
X1171584Y78159D01*
X1171576Y78105D01*
X1171576Y74295D01*
X1171587Y74230D01*
X1171589Y74164D01*
X1171607Y74121D01*
X1171615Y74074D01*
X1171649Y74017D01*
X1171674Y73957D01*
X1171705Y73922D01*
X1171730Y73881D01*
X1171781Y73840D01*
X1171825Y73791D01*
X1171867Y73769D01*
X1171904Y73740D01*
X1171966Y73719D01*
X1172025Y73688D01*
X1172079Y73680D01*
X1172116Y73668D01*
X1172156Y73669D01*
X1172210Y73661D01*
X1174750Y73661D01*
X1174815Y73672D01*
G37*
G36*
X1099250Y955687D02*
X1099250Y955687D01*
X1099316Y955689D01*
X1099359Y955707D01*
X1099406Y955715D01*
X1099463Y955749D01*
X1099523Y955774D01*
X1099558Y955805D01*
X1099599Y955830D01*
X1099641Y955881D01*
X1099689Y955925D01*
X1099711Y955967D01*
X1099740Y956004D01*
X1099761Y956066D01*
X1099792Y956125D01*
X1099800Y956179D01*
X1099812Y956216D01*
X1099811Y956256D01*
X1099819Y956310D01*
X1099819Y958850D01*
X1099808Y958915D01*
X1099806Y958981D01*
X1099788Y959024D01*
X1099780Y959071D01*
X1099746Y959128D01*
X1099721Y959188D01*
X1099690Y959223D01*
X1099665Y959264D01*
X1099614Y959306D01*
X1099570Y959354D01*
X1099528Y959376D01*
X1099491Y959405D01*
X1099429Y959426D01*
X1099370Y959457D01*
X1099316Y959465D01*
X1099279Y959477D01*
X1099239Y959476D01*
X1099185Y959484D01*
X1095375Y959484D01*
X1095310Y959473D01*
X1095244Y959471D01*
X1095201Y959453D01*
X1095154Y959445D01*
X1095097Y959411D01*
X1095037Y959386D01*
X1095002Y959355D01*
X1094961Y959330D01*
X1094920Y959279D01*
X1094871Y959235D01*
X1094849Y959193D01*
X1094820Y959156D01*
X1094799Y959094D01*
X1094768Y959035D01*
X1094760Y958981D01*
X1094748Y958944D01*
X1094748Y958941D01*
X1094749Y958904D01*
X1094741Y958850D01*
X1094741Y956310D01*
X1094752Y956245D01*
X1094754Y956179D01*
X1094772Y956136D01*
X1094780Y956089D01*
X1094814Y956032D01*
X1094839Y955972D01*
X1094870Y955937D01*
X1094895Y955896D01*
X1094946Y955855D01*
X1094990Y955806D01*
X1095032Y955784D01*
X1095069Y955755D01*
X1095131Y955734D01*
X1095190Y955703D01*
X1095244Y955695D01*
X1095281Y955683D01*
X1095321Y955684D01*
X1095375Y955676D01*
X1099185Y955676D01*
X1099250Y955687D01*
G37*
G36*
X433770Y955687D02*
X433770Y955687D01*
X433836Y955689D01*
X433879Y955707D01*
X433926Y955715D01*
X433983Y955749D01*
X434043Y955774D01*
X434078Y955805D01*
X434119Y955830D01*
X434161Y955881D01*
X434209Y955925D01*
X434231Y955967D01*
X434260Y956004D01*
X434281Y956066D01*
X434312Y956125D01*
X434320Y956179D01*
X434332Y956216D01*
X434331Y956256D01*
X434339Y956310D01*
X434339Y958850D01*
X434328Y958915D01*
X434326Y958981D01*
X434308Y959024D01*
X434300Y959071D01*
X434266Y959128D01*
X434241Y959188D01*
X434210Y959223D01*
X434185Y959264D01*
X434134Y959306D01*
X434090Y959354D01*
X434048Y959376D01*
X434011Y959405D01*
X433949Y959426D01*
X433890Y959457D01*
X433836Y959465D01*
X433799Y959477D01*
X433759Y959476D01*
X433705Y959484D01*
X429895Y959484D01*
X429830Y959473D01*
X429764Y959471D01*
X429721Y959453D01*
X429674Y959445D01*
X429617Y959411D01*
X429557Y959386D01*
X429522Y959355D01*
X429481Y959330D01*
X429440Y959279D01*
X429391Y959235D01*
X429369Y959193D01*
X429340Y959156D01*
X429319Y959094D01*
X429288Y959035D01*
X429280Y958981D01*
X429268Y958944D01*
X429268Y958941D01*
X429269Y958904D01*
X429261Y958850D01*
X429261Y956310D01*
X429272Y956245D01*
X429274Y956179D01*
X429292Y956136D01*
X429300Y956089D01*
X429334Y956032D01*
X429359Y955972D01*
X429390Y955937D01*
X429415Y955896D01*
X429466Y955855D01*
X429510Y955806D01*
X429552Y955784D01*
X429589Y955755D01*
X429651Y955734D01*
X429710Y955703D01*
X429764Y955695D01*
X429801Y955683D01*
X429841Y955684D01*
X429895Y955676D01*
X433705Y955676D01*
X433770Y955687D01*
G37*
G36*
X1099250Y930287D02*
X1099250Y930287D01*
X1099316Y930289D01*
X1099359Y930307D01*
X1099406Y930315D01*
X1099463Y930349D01*
X1099523Y930374D01*
X1099558Y930405D01*
X1099599Y930430D01*
X1099641Y930481D01*
X1099689Y930525D01*
X1099711Y930567D01*
X1099740Y930604D01*
X1099761Y930666D01*
X1099792Y930725D01*
X1099800Y930779D01*
X1099812Y930816D01*
X1099811Y930856D01*
X1099819Y930910D01*
X1099819Y933450D01*
X1099808Y933515D01*
X1099806Y933581D01*
X1099788Y933624D01*
X1099780Y933671D01*
X1099746Y933728D01*
X1099721Y933788D01*
X1099690Y933823D01*
X1099665Y933864D01*
X1099614Y933906D01*
X1099570Y933954D01*
X1099528Y933976D01*
X1099491Y934005D01*
X1099429Y934026D01*
X1099370Y934057D01*
X1099316Y934065D01*
X1099279Y934077D01*
X1099239Y934076D01*
X1099185Y934084D01*
X1095375Y934084D01*
X1095310Y934073D01*
X1095244Y934071D01*
X1095201Y934053D01*
X1095154Y934045D01*
X1095097Y934011D01*
X1095037Y933986D01*
X1095002Y933955D01*
X1094961Y933930D01*
X1094920Y933879D01*
X1094871Y933835D01*
X1094849Y933793D01*
X1094820Y933756D01*
X1094799Y933694D01*
X1094768Y933635D01*
X1094760Y933581D01*
X1094748Y933544D01*
X1094748Y933541D01*
X1094749Y933504D01*
X1094741Y933450D01*
X1094741Y930910D01*
X1094752Y930845D01*
X1094754Y930779D01*
X1094772Y930736D01*
X1094780Y930689D01*
X1094814Y930632D01*
X1094839Y930572D01*
X1094870Y930537D01*
X1094895Y930496D01*
X1094946Y930455D01*
X1094990Y930406D01*
X1095032Y930384D01*
X1095069Y930355D01*
X1095131Y930334D01*
X1095190Y930303D01*
X1095244Y930295D01*
X1095281Y930283D01*
X1095321Y930284D01*
X1095375Y930276D01*
X1099185Y930276D01*
X1099250Y930287D01*
G37*
G36*
X433770Y930287D02*
X433770Y930287D01*
X433836Y930289D01*
X433879Y930307D01*
X433926Y930315D01*
X433983Y930349D01*
X434043Y930374D01*
X434078Y930405D01*
X434119Y930430D01*
X434161Y930481D01*
X434209Y930525D01*
X434231Y930567D01*
X434260Y930604D01*
X434281Y930666D01*
X434312Y930725D01*
X434320Y930779D01*
X434332Y930816D01*
X434331Y930856D01*
X434339Y930910D01*
X434339Y933450D01*
X434328Y933515D01*
X434326Y933581D01*
X434308Y933624D01*
X434300Y933671D01*
X434266Y933728D01*
X434241Y933788D01*
X434210Y933823D01*
X434185Y933864D01*
X434134Y933906D01*
X434090Y933954D01*
X434048Y933976D01*
X434011Y934005D01*
X433949Y934026D01*
X433890Y934057D01*
X433836Y934065D01*
X433799Y934077D01*
X433759Y934076D01*
X433705Y934084D01*
X429895Y934084D01*
X429830Y934073D01*
X429764Y934071D01*
X429721Y934053D01*
X429674Y934045D01*
X429617Y934011D01*
X429557Y933986D01*
X429522Y933955D01*
X429481Y933930D01*
X429440Y933879D01*
X429391Y933835D01*
X429369Y933793D01*
X429340Y933756D01*
X429319Y933694D01*
X429288Y933635D01*
X429280Y933581D01*
X429268Y933544D01*
X429268Y933541D01*
X429269Y933504D01*
X429261Y933450D01*
X429261Y930910D01*
X429272Y930845D01*
X429274Y930779D01*
X429292Y930736D01*
X429300Y930689D01*
X429334Y930632D01*
X429359Y930572D01*
X429390Y930537D01*
X429415Y930496D01*
X429466Y930455D01*
X429510Y930406D01*
X429552Y930384D01*
X429589Y930355D01*
X429651Y930334D01*
X429710Y930303D01*
X429764Y930295D01*
X429801Y930283D01*
X429841Y930284D01*
X429895Y930276D01*
X433705Y930276D01*
X433770Y930287D01*
G37*
G36*
X1099250Y904887D02*
X1099250Y904887D01*
X1099316Y904889D01*
X1099359Y904907D01*
X1099406Y904915D01*
X1099463Y904949D01*
X1099523Y904974D01*
X1099558Y905005D01*
X1099599Y905030D01*
X1099641Y905081D01*
X1099689Y905125D01*
X1099711Y905167D01*
X1099740Y905204D01*
X1099761Y905266D01*
X1099792Y905325D01*
X1099800Y905379D01*
X1099812Y905416D01*
X1099811Y905456D01*
X1099819Y905510D01*
X1099819Y908050D01*
X1099808Y908115D01*
X1099806Y908181D01*
X1099788Y908224D01*
X1099780Y908271D01*
X1099746Y908328D01*
X1099721Y908388D01*
X1099690Y908423D01*
X1099665Y908464D01*
X1099614Y908506D01*
X1099570Y908554D01*
X1099528Y908576D01*
X1099491Y908605D01*
X1099429Y908626D01*
X1099370Y908657D01*
X1099316Y908665D01*
X1099279Y908677D01*
X1099239Y908676D01*
X1099185Y908684D01*
X1095375Y908684D01*
X1095310Y908673D01*
X1095244Y908671D01*
X1095201Y908653D01*
X1095154Y908645D01*
X1095097Y908611D01*
X1095037Y908586D01*
X1095002Y908555D01*
X1094961Y908530D01*
X1094920Y908479D01*
X1094871Y908435D01*
X1094849Y908393D01*
X1094820Y908356D01*
X1094799Y908294D01*
X1094768Y908235D01*
X1094760Y908181D01*
X1094748Y908144D01*
X1094748Y908141D01*
X1094749Y908104D01*
X1094741Y908050D01*
X1094741Y905510D01*
X1094752Y905445D01*
X1094754Y905379D01*
X1094772Y905336D01*
X1094780Y905289D01*
X1094814Y905232D01*
X1094839Y905172D01*
X1094870Y905137D01*
X1094895Y905096D01*
X1094946Y905055D01*
X1094990Y905006D01*
X1095032Y904984D01*
X1095069Y904955D01*
X1095131Y904934D01*
X1095190Y904903D01*
X1095244Y904895D01*
X1095281Y904883D01*
X1095321Y904884D01*
X1095375Y904876D01*
X1099185Y904876D01*
X1099250Y904887D01*
G37*
G36*
X433770Y904887D02*
X433770Y904887D01*
X433836Y904889D01*
X433879Y904907D01*
X433926Y904915D01*
X433983Y904949D01*
X434043Y904974D01*
X434078Y905005D01*
X434119Y905030D01*
X434161Y905081D01*
X434209Y905125D01*
X434231Y905167D01*
X434260Y905204D01*
X434281Y905266D01*
X434312Y905325D01*
X434320Y905379D01*
X434332Y905416D01*
X434331Y905456D01*
X434339Y905510D01*
X434339Y908050D01*
X434328Y908115D01*
X434326Y908181D01*
X434308Y908224D01*
X434300Y908271D01*
X434266Y908328D01*
X434241Y908388D01*
X434210Y908423D01*
X434185Y908464D01*
X434134Y908506D01*
X434090Y908554D01*
X434048Y908576D01*
X434011Y908605D01*
X433949Y908626D01*
X433890Y908657D01*
X433836Y908665D01*
X433799Y908677D01*
X433759Y908676D01*
X433705Y908684D01*
X429895Y908684D01*
X429830Y908673D01*
X429764Y908671D01*
X429721Y908653D01*
X429674Y908645D01*
X429617Y908611D01*
X429557Y908586D01*
X429522Y908555D01*
X429481Y908530D01*
X429440Y908479D01*
X429391Y908435D01*
X429369Y908393D01*
X429340Y908356D01*
X429319Y908294D01*
X429288Y908235D01*
X429280Y908181D01*
X429268Y908144D01*
X429268Y908141D01*
X429269Y908104D01*
X429261Y908050D01*
X429261Y905510D01*
X429272Y905445D01*
X429274Y905379D01*
X429292Y905336D01*
X429300Y905289D01*
X429334Y905232D01*
X429359Y905172D01*
X429390Y905137D01*
X429415Y905096D01*
X429466Y905055D01*
X429510Y905006D01*
X429552Y904984D01*
X429589Y904955D01*
X429651Y904934D01*
X429710Y904903D01*
X429764Y904895D01*
X429801Y904883D01*
X429841Y904884D01*
X429895Y904876D01*
X433705Y904876D01*
X433770Y904887D01*
G37*
G36*
X433770Y879487D02*
X433770Y879487D01*
X433836Y879489D01*
X433879Y879507D01*
X433926Y879515D01*
X433983Y879549D01*
X434043Y879574D01*
X434078Y879605D01*
X434119Y879630D01*
X434161Y879681D01*
X434209Y879725D01*
X434231Y879767D01*
X434260Y879804D01*
X434281Y879866D01*
X434312Y879925D01*
X434320Y879979D01*
X434332Y880016D01*
X434331Y880056D01*
X434339Y880110D01*
X434339Y882650D01*
X434328Y882715D01*
X434326Y882781D01*
X434308Y882824D01*
X434300Y882871D01*
X434266Y882928D01*
X434241Y882988D01*
X434210Y883023D01*
X434185Y883064D01*
X434134Y883106D01*
X434090Y883154D01*
X434048Y883176D01*
X434011Y883205D01*
X433949Y883226D01*
X433890Y883257D01*
X433836Y883265D01*
X433799Y883277D01*
X433759Y883276D01*
X433705Y883284D01*
X429895Y883284D01*
X429830Y883273D01*
X429764Y883271D01*
X429721Y883253D01*
X429674Y883245D01*
X429617Y883211D01*
X429557Y883186D01*
X429522Y883155D01*
X429481Y883130D01*
X429440Y883079D01*
X429391Y883035D01*
X429369Y882993D01*
X429340Y882956D01*
X429319Y882894D01*
X429288Y882835D01*
X429280Y882781D01*
X429268Y882744D01*
X429268Y882741D01*
X429269Y882704D01*
X429261Y882650D01*
X429261Y880110D01*
X429272Y880045D01*
X429274Y879979D01*
X429292Y879936D01*
X429300Y879889D01*
X429334Y879832D01*
X429359Y879772D01*
X429390Y879737D01*
X429415Y879696D01*
X429466Y879655D01*
X429510Y879606D01*
X429552Y879584D01*
X429589Y879555D01*
X429651Y879534D01*
X429710Y879503D01*
X429764Y879495D01*
X429801Y879483D01*
X429841Y879484D01*
X429895Y879476D01*
X433705Y879476D01*
X433770Y879487D01*
G37*
G36*
X1099250Y879487D02*
X1099250Y879487D01*
X1099316Y879489D01*
X1099359Y879507D01*
X1099406Y879515D01*
X1099463Y879549D01*
X1099523Y879574D01*
X1099558Y879605D01*
X1099599Y879630D01*
X1099641Y879681D01*
X1099689Y879725D01*
X1099711Y879767D01*
X1099740Y879804D01*
X1099761Y879866D01*
X1099792Y879925D01*
X1099800Y879979D01*
X1099812Y880016D01*
X1099811Y880056D01*
X1099819Y880110D01*
X1099819Y882650D01*
X1099808Y882715D01*
X1099806Y882781D01*
X1099788Y882824D01*
X1099780Y882871D01*
X1099746Y882928D01*
X1099721Y882988D01*
X1099690Y883023D01*
X1099665Y883064D01*
X1099614Y883106D01*
X1099570Y883154D01*
X1099528Y883176D01*
X1099491Y883205D01*
X1099429Y883226D01*
X1099370Y883257D01*
X1099316Y883265D01*
X1099279Y883277D01*
X1099239Y883276D01*
X1099185Y883284D01*
X1095375Y883284D01*
X1095310Y883273D01*
X1095244Y883271D01*
X1095201Y883253D01*
X1095154Y883245D01*
X1095097Y883211D01*
X1095037Y883186D01*
X1095002Y883155D01*
X1094961Y883130D01*
X1094920Y883079D01*
X1094871Y883035D01*
X1094849Y882993D01*
X1094820Y882956D01*
X1094799Y882894D01*
X1094768Y882835D01*
X1094760Y882781D01*
X1094748Y882744D01*
X1094748Y882741D01*
X1094749Y882704D01*
X1094741Y882650D01*
X1094741Y880110D01*
X1094752Y880045D01*
X1094754Y879979D01*
X1094772Y879936D01*
X1094780Y879889D01*
X1094814Y879832D01*
X1094839Y879772D01*
X1094870Y879737D01*
X1094895Y879696D01*
X1094946Y879655D01*
X1094990Y879606D01*
X1095032Y879584D01*
X1095069Y879555D01*
X1095131Y879534D01*
X1095190Y879503D01*
X1095244Y879495D01*
X1095281Y879483D01*
X1095321Y879484D01*
X1095375Y879476D01*
X1099185Y879476D01*
X1099250Y879487D01*
G37*
G36*
X428690Y828687D02*
X428690Y828687D01*
X428756Y828689D01*
X428799Y828707D01*
X428846Y828715D01*
X428903Y828749D01*
X428963Y828774D01*
X428998Y828805D01*
X429039Y828830D01*
X429081Y828881D01*
X429129Y828925D01*
X429151Y828967D01*
X429180Y829004D01*
X429201Y829066D01*
X429232Y829125D01*
X429240Y829179D01*
X429252Y829216D01*
X429251Y829256D01*
X429259Y829310D01*
X429259Y831850D01*
X429248Y831915D01*
X429246Y831981D01*
X429228Y832024D01*
X429220Y832071D01*
X429186Y832128D01*
X429161Y832188D01*
X429130Y832223D01*
X429105Y832264D01*
X429054Y832306D01*
X429010Y832354D01*
X428968Y832376D01*
X428931Y832405D01*
X428869Y832426D01*
X428810Y832457D01*
X428756Y832465D01*
X428719Y832477D01*
X428679Y832476D01*
X428625Y832484D01*
X424815Y832484D01*
X424750Y832473D01*
X424684Y832471D01*
X424641Y832453D01*
X424594Y832445D01*
X424537Y832411D01*
X424477Y832386D01*
X424442Y832355D01*
X424401Y832330D01*
X424360Y832279D01*
X424311Y832235D01*
X424289Y832193D01*
X424260Y832156D01*
X424239Y832094D01*
X424208Y832035D01*
X424200Y831981D01*
X424188Y831944D01*
X424188Y831941D01*
X424189Y831904D01*
X424181Y831850D01*
X424181Y829310D01*
X424192Y829245D01*
X424194Y829179D01*
X424212Y829136D01*
X424220Y829089D01*
X424254Y829032D01*
X424279Y828972D01*
X424310Y828937D01*
X424335Y828896D01*
X424386Y828855D01*
X424430Y828806D01*
X424472Y828784D01*
X424509Y828755D01*
X424571Y828734D01*
X424630Y828703D01*
X424684Y828695D01*
X424721Y828683D01*
X424761Y828684D01*
X424815Y828676D01*
X428625Y828676D01*
X428690Y828687D01*
G37*
G36*
X1094170Y828687D02*
X1094170Y828687D01*
X1094236Y828689D01*
X1094279Y828707D01*
X1094326Y828715D01*
X1094383Y828749D01*
X1094443Y828774D01*
X1094478Y828805D01*
X1094519Y828830D01*
X1094561Y828881D01*
X1094609Y828925D01*
X1094631Y828967D01*
X1094660Y829004D01*
X1094681Y829066D01*
X1094712Y829125D01*
X1094720Y829179D01*
X1094732Y829216D01*
X1094731Y829256D01*
X1094739Y829310D01*
X1094739Y831850D01*
X1094728Y831915D01*
X1094726Y831981D01*
X1094708Y832024D01*
X1094700Y832071D01*
X1094666Y832128D01*
X1094641Y832188D01*
X1094610Y832223D01*
X1094585Y832264D01*
X1094534Y832306D01*
X1094490Y832354D01*
X1094448Y832376D01*
X1094411Y832405D01*
X1094349Y832426D01*
X1094290Y832457D01*
X1094236Y832465D01*
X1094199Y832477D01*
X1094159Y832476D01*
X1094105Y832484D01*
X1090295Y832484D01*
X1090230Y832473D01*
X1090164Y832471D01*
X1090121Y832453D01*
X1090074Y832445D01*
X1090017Y832411D01*
X1089957Y832386D01*
X1089922Y832355D01*
X1089881Y832330D01*
X1089840Y832279D01*
X1089791Y832235D01*
X1089769Y832193D01*
X1089740Y832156D01*
X1089719Y832094D01*
X1089688Y832035D01*
X1089680Y831981D01*
X1089668Y831944D01*
X1089668Y831941D01*
X1089669Y831904D01*
X1089661Y831850D01*
X1089661Y829310D01*
X1089672Y829245D01*
X1089674Y829179D01*
X1089692Y829136D01*
X1089700Y829089D01*
X1089734Y829032D01*
X1089759Y828972D01*
X1089790Y828937D01*
X1089815Y828896D01*
X1089866Y828855D01*
X1089910Y828806D01*
X1089952Y828784D01*
X1089989Y828755D01*
X1090051Y828734D01*
X1090110Y828703D01*
X1090164Y828695D01*
X1090201Y828683D01*
X1090241Y828684D01*
X1090295Y828676D01*
X1094105Y828676D01*
X1094170Y828687D01*
G37*
G36*
X1099250Y1006487D02*
X1099250Y1006487D01*
X1099316Y1006489D01*
X1099359Y1006507D01*
X1099406Y1006515D01*
X1099463Y1006549D01*
X1099523Y1006574D01*
X1099558Y1006605D01*
X1099599Y1006630D01*
X1099641Y1006681D01*
X1099689Y1006725D01*
X1099711Y1006767D01*
X1099740Y1006804D01*
X1099761Y1006866D01*
X1099792Y1006925D01*
X1099800Y1006979D01*
X1099812Y1007016D01*
X1099811Y1007056D01*
X1099819Y1007110D01*
X1099819Y1009650D01*
X1099808Y1009715D01*
X1099806Y1009781D01*
X1099788Y1009824D01*
X1099780Y1009871D01*
X1099746Y1009928D01*
X1099721Y1009988D01*
X1099690Y1010023D01*
X1099665Y1010064D01*
X1099614Y1010106D01*
X1099570Y1010154D01*
X1099528Y1010176D01*
X1099491Y1010205D01*
X1099429Y1010226D01*
X1099370Y1010257D01*
X1099316Y1010265D01*
X1099279Y1010277D01*
X1099239Y1010276D01*
X1099185Y1010284D01*
X1095375Y1010284D01*
X1095310Y1010273D01*
X1095244Y1010271D01*
X1095201Y1010253D01*
X1095154Y1010245D01*
X1095097Y1010211D01*
X1095037Y1010186D01*
X1095002Y1010155D01*
X1094961Y1010130D01*
X1094920Y1010079D01*
X1094871Y1010035D01*
X1094849Y1009993D01*
X1094820Y1009956D01*
X1094799Y1009894D01*
X1094768Y1009835D01*
X1094760Y1009781D01*
X1094748Y1009744D01*
X1094748Y1009741D01*
X1094749Y1009704D01*
X1094741Y1009650D01*
X1094741Y1007110D01*
X1094752Y1007045D01*
X1094754Y1006979D01*
X1094772Y1006936D01*
X1094780Y1006889D01*
X1094814Y1006832D01*
X1094839Y1006772D01*
X1094870Y1006737D01*
X1094895Y1006696D01*
X1094946Y1006655D01*
X1094990Y1006606D01*
X1095032Y1006584D01*
X1095069Y1006555D01*
X1095131Y1006534D01*
X1095190Y1006503D01*
X1095244Y1006495D01*
X1095281Y1006483D01*
X1095321Y1006484D01*
X1095375Y1006476D01*
X1099185Y1006476D01*
X1099250Y1006487D01*
G37*
G36*
X433770Y493407D02*
X433770Y493407D01*
X433836Y493409D01*
X433879Y493427D01*
X433926Y493435D01*
X433983Y493469D01*
X434043Y493494D01*
X434078Y493525D01*
X434119Y493550D01*
X434161Y493601D01*
X434209Y493645D01*
X434231Y493687D01*
X434260Y493724D01*
X434281Y493786D01*
X434312Y493845D01*
X434320Y493899D01*
X434332Y493936D01*
X434331Y493976D01*
X434339Y494030D01*
X434339Y496570D01*
X434328Y496635D01*
X434326Y496701D01*
X434308Y496744D01*
X434300Y496791D01*
X434266Y496848D01*
X434241Y496908D01*
X434210Y496943D01*
X434185Y496984D01*
X434134Y497026D01*
X434090Y497074D01*
X434048Y497096D01*
X434011Y497125D01*
X433949Y497146D01*
X433890Y497177D01*
X433836Y497185D01*
X433799Y497197D01*
X433759Y497196D01*
X433705Y497204D01*
X429895Y497204D01*
X429830Y497193D01*
X429764Y497191D01*
X429721Y497173D01*
X429674Y497165D01*
X429617Y497131D01*
X429557Y497106D01*
X429522Y497075D01*
X429481Y497050D01*
X429440Y496999D01*
X429391Y496955D01*
X429369Y496913D01*
X429340Y496876D01*
X429319Y496814D01*
X429288Y496755D01*
X429280Y496701D01*
X429268Y496664D01*
X429268Y496661D01*
X429269Y496624D01*
X429261Y496570D01*
X429261Y494030D01*
X429272Y493965D01*
X429274Y493899D01*
X429292Y493856D01*
X429300Y493809D01*
X429334Y493752D01*
X429359Y493692D01*
X429390Y493657D01*
X429415Y493616D01*
X429466Y493575D01*
X429510Y493526D01*
X429552Y493504D01*
X429589Y493475D01*
X429651Y493454D01*
X429710Y493423D01*
X429764Y493415D01*
X429801Y493403D01*
X429841Y493404D01*
X429895Y493396D01*
X433705Y493396D01*
X433770Y493407D01*
G37*
G36*
X1099250Y468007D02*
X1099250Y468007D01*
X1099316Y468009D01*
X1099359Y468027D01*
X1099406Y468035D01*
X1099463Y468069D01*
X1099523Y468094D01*
X1099558Y468125D01*
X1099599Y468150D01*
X1099641Y468201D01*
X1099689Y468245D01*
X1099711Y468287D01*
X1099740Y468324D01*
X1099761Y468386D01*
X1099792Y468445D01*
X1099800Y468499D01*
X1099812Y468536D01*
X1099811Y468576D01*
X1099819Y468630D01*
X1099819Y471170D01*
X1099808Y471235D01*
X1099806Y471301D01*
X1099788Y471344D01*
X1099780Y471391D01*
X1099746Y471448D01*
X1099721Y471508D01*
X1099690Y471543D01*
X1099665Y471584D01*
X1099614Y471626D01*
X1099570Y471674D01*
X1099528Y471696D01*
X1099491Y471725D01*
X1099429Y471746D01*
X1099370Y471777D01*
X1099316Y471785D01*
X1099279Y471797D01*
X1099239Y471796D01*
X1099185Y471804D01*
X1095375Y471804D01*
X1095310Y471793D01*
X1095244Y471791D01*
X1095201Y471773D01*
X1095154Y471765D01*
X1095097Y471731D01*
X1095037Y471706D01*
X1095002Y471675D01*
X1094961Y471650D01*
X1094920Y471599D01*
X1094871Y471555D01*
X1094849Y471513D01*
X1094820Y471476D01*
X1094799Y471414D01*
X1094768Y471355D01*
X1094760Y471301D01*
X1094748Y471264D01*
X1094748Y471261D01*
X1094749Y471224D01*
X1094741Y471170D01*
X1094741Y468630D01*
X1094752Y468565D01*
X1094754Y468499D01*
X1094772Y468456D01*
X1094780Y468409D01*
X1094814Y468352D01*
X1094839Y468292D01*
X1094870Y468257D01*
X1094895Y468216D01*
X1094946Y468175D01*
X1094990Y468126D01*
X1095032Y468104D01*
X1095069Y468075D01*
X1095131Y468054D01*
X1095190Y468023D01*
X1095244Y468015D01*
X1095281Y468003D01*
X1095321Y468004D01*
X1095375Y467996D01*
X1099185Y467996D01*
X1099250Y468007D01*
G37*
G36*
X433770Y468007D02*
X433770Y468007D01*
X433836Y468009D01*
X433879Y468027D01*
X433926Y468035D01*
X433983Y468069D01*
X434043Y468094D01*
X434078Y468125D01*
X434119Y468150D01*
X434161Y468201D01*
X434209Y468245D01*
X434231Y468287D01*
X434260Y468324D01*
X434281Y468386D01*
X434312Y468445D01*
X434320Y468499D01*
X434332Y468536D01*
X434331Y468576D01*
X434339Y468630D01*
X434339Y471170D01*
X434328Y471235D01*
X434326Y471301D01*
X434308Y471344D01*
X434300Y471391D01*
X434266Y471448D01*
X434241Y471508D01*
X434210Y471543D01*
X434185Y471584D01*
X434134Y471626D01*
X434090Y471674D01*
X434048Y471696D01*
X434011Y471725D01*
X433949Y471746D01*
X433890Y471777D01*
X433836Y471785D01*
X433799Y471797D01*
X433759Y471796D01*
X433705Y471804D01*
X429895Y471804D01*
X429830Y471793D01*
X429764Y471791D01*
X429721Y471773D01*
X429674Y471765D01*
X429617Y471731D01*
X429557Y471706D01*
X429522Y471675D01*
X429481Y471650D01*
X429440Y471599D01*
X429391Y471555D01*
X429369Y471513D01*
X429340Y471476D01*
X429319Y471414D01*
X429288Y471355D01*
X429280Y471301D01*
X429268Y471264D01*
X429268Y471261D01*
X429269Y471224D01*
X429261Y471170D01*
X429261Y468630D01*
X429272Y468565D01*
X429274Y468499D01*
X429292Y468456D01*
X429300Y468409D01*
X429334Y468352D01*
X429359Y468292D01*
X429390Y468257D01*
X429415Y468216D01*
X429466Y468175D01*
X429510Y468126D01*
X429552Y468104D01*
X429589Y468075D01*
X429651Y468054D01*
X429710Y468023D01*
X429764Y468015D01*
X429801Y468003D01*
X429841Y468004D01*
X429895Y467996D01*
X433705Y467996D01*
X433770Y468007D01*
G37*
G36*
X1099250Y442607D02*
X1099250Y442607D01*
X1099316Y442609D01*
X1099359Y442627D01*
X1099406Y442635D01*
X1099463Y442669D01*
X1099523Y442694D01*
X1099558Y442725D01*
X1099599Y442750D01*
X1099641Y442801D01*
X1099689Y442845D01*
X1099711Y442887D01*
X1099740Y442924D01*
X1099761Y442986D01*
X1099792Y443045D01*
X1099800Y443099D01*
X1099812Y443136D01*
X1099811Y443176D01*
X1099819Y443230D01*
X1099819Y445770D01*
X1099808Y445835D01*
X1099806Y445901D01*
X1099788Y445944D01*
X1099780Y445991D01*
X1099746Y446048D01*
X1099721Y446108D01*
X1099690Y446143D01*
X1099665Y446184D01*
X1099614Y446226D01*
X1099570Y446274D01*
X1099528Y446296D01*
X1099491Y446325D01*
X1099429Y446346D01*
X1099370Y446377D01*
X1099316Y446385D01*
X1099279Y446397D01*
X1099239Y446396D01*
X1099185Y446404D01*
X1095375Y446404D01*
X1095310Y446393D01*
X1095244Y446391D01*
X1095201Y446373D01*
X1095154Y446365D01*
X1095097Y446331D01*
X1095037Y446306D01*
X1095002Y446275D01*
X1094961Y446250D01*
X1094920Y446199D01*
X1094871Y446155D01*
X1094849Y446113D01*
X1094820Y446076D01*
X1094799Y446014D01*
X1094768Y445955D01*
X1094760Y445901D01*
X1094748Y445864D01*
X1094748Y445861D01*
X1094749Y445824D01*
X1094741Y445770D01*
X1094741Y443230D01*
X1094752Y443165D01*
X1094754Y443099D01*
X1094772Y443056D01*
X1094780Y443009D01*
X1094814Y442952D01*
X1094839Y442892D01*
X1094870Y442857D01*
X1094895Y442816D01*
X1094946Y442775D01*
X1094990Y442726D01*
X1095032Y442704D01*
X1095069Y442675D01*
X1095131Y442654D01*
X1095190Y442623D01*
X1095244Y442615D01*
X1095281Y442603D01*
X1095321Y442604D01*
X1095375Y442596D01*
X1099185Y442596D01*
X1099250Y442607D01*
G37*
G36*
X433770Y442607D02*
X433770Y442607D01*
X433836Y442609D01*
X433879Y442627D01*
X433926Y442635D01*
X433983Y442669D01*
X434043Y442694D01*
X434078Y442725D01*
X434119Y442750D01*
X434161Y442801D01*
X434209Y442845D01*
X434231Y442887D01*
X434260Y442924D01*
X434281Y442986D01*
X434312Y443045D01*
X434320Y443099D01*
X434332Y443136D01*
X434331Y443176D01*
X434339Y443230D01*
X434339Y445770D01*
X434328Y445835D01*
X434326Y445901D01*
X434308Y445944D01*
X434300Y445991D01*
X434266Y446048D01*
X434241Y446108D01*
X434210Y446143D01*
X434185Y446184D01*
X434134Y446226D01*
X434090Y446274D01*
X434048Y446296D01*
X434011Y446325D01*
X433949Y446346D01*
X433890Y446377D01*
X433836Y446385D01*
X433799Y446397D01*
X433759Y446396D01*
X433705Y446404D01*
X429895Y446404D01*
X429830Y446393D01*
X429764Y446391D01*
X429721Y446373D01*
X429674Y446365D01*
X429617Y446331D01*
X429557Y446306D01*
X429522Y446275D01*
X429481Y446250D01*
X429440Y446199D01*
X429391Y446155D01*
X429369Y446113D01*
X429340Y446076D01*
X429319Y446014D01*
X429288Y445955D01*
X429280Y445901D01*
X429268Y445864D01*
X429268Y445861D01*
X429269Y445824D01*
X429261Y445770D01*
X429261Y443230D01*
X429272Y443165D01*
X429274Y443099D01*
X429292Y443056D01*
X429300Y443009D01*
X429334Y442952D01*
X429359Y442892D01*
X429390Y442857D01*
X429415Y442816D01*
X429466Y442775D01*
X429510Y442726D01*
X429552Y442704D01*
X429589Y442675D01*
X429651Y442654D01*
X429710Y442623D01*
X429764Y442615D01*
X429801Y442603D01*
X429841Y442604D01*
X429895Y442596D01*
X433705Y442596D01*
X433770Y442607D01*
G37*
G36*
X1099250Y417207D02*
X1099250Y417207D01*
X1099316Y417209D01*
X1099359Y417227D01*
X1099406Y417235D01*
X1099463Y417269D01*
X1099523Y417294D01*
X1099558Y417325D01*
X1099599Y417350D01*
X1099641Y417401D01*
X1099689Y417445D01*
X1099711Y417487D01*
X1099740Y417524D01*
X1099761Y417586D01*
X1099792Y417645D01*
X1099800Y417699D01*
X1099812Y417736D01*
X1099811Y417776D01*
X1099819Y417830D01*
X1099819Y420370D01*
X1099808Y420435D01*
X1099806Y420501D01*
X1099788Y420544D01*
X1099780Y420591D01*
X1099746Y420648D01*
X1099721Y420708D01*
X1099690Y420743D01*
X1099665Y420784D01*
X1099614Y420826D01*
X1099570Y420874D01*
X1099528Y420896D01*
X1099491Y420925D01*
X1099429Y420946D01*
X1099370Y420977D01*
X1099316Y420985D01*
X1099279Y420997D01*
X1099239Y420996D01*
X1099185Y421004D01*
X1095375Y421004D01*
X1095310Y420993D01*
X1095244Y420991D01*
X1095201Y420973D01*
X1095154Y420965D01*
X1095097Y420931D01*
X1095037Y420906D01*
X1095002Y420875D01*
X1094961Y420850D01*
X1094920Y420799D01*
X1094871Y420755D01*
X1094849Y420713D01*
X1094820Y420676D01*
X1094799Y420614D01*
X1094768Y420555D01*
X1094760Y420501D01*
X1094748Y420464D01*
X1094748Y420461D01*
X1094749Y420424D01*
X1094741Y420370D01*
X1094741Y417830D01*
X1094752Y417765D01*
X1094754Y417699D01*
X1094772Y417656D01*
X1094780Y417609D01*
X1094814Y417552D01*
X1094839Y417492D01*
X1094870Y417457D01*
X1094895Y417416D01*
X1094946Y417375D01*
X1094990Y417326D01*
X1095032Y417304D01*
X1095069Y417275D01*
X1095131Y417254D01*
X1095190Y417223D01*
X1095244Y417215D01*
X1095281Y417203D01*
X1095321Y417204D01*
X1095375Y417196D01*
X1099185Y417196D01*
X1099250Y417207D01*
G37*
G36*
X433770Y417207D02*
X433770Y417207D01*
X433836Y417209D01*
X433879Y417227D01*
X433926Y417235D01*
X433983Y417269D01*
X434043Y417294D01*
X434078Y417325D01*
X434119Y417350D01*
X434161Y417401D01*
X434209Y417445D01*
X434231Y417487D01*
X434260Y417524D01*
X434281Y417586D01*
X434312Y417645D01*
X434320Y417699D01*
X434332Y417736D01*
X434331Y417776D01*
X434339Y417830D01*
X434339Y420370D01*
X434328Y420435D01*
X434326Y420501D01*
X434308Y420544D01*
X434300Y420591D01*
X434266Y420648D01*
X434241Y420708D01*
X434210Y420743D01*
X434185Y420784D01*
X434134Y420826D01*
X434090Y420874D01*
X434048Y420896D01*
X434011Y420925D01*
X433949Y420946D01*
X433890Y420977D01*
X433836Y420985D01*
X433799Y420997D01*
X433759Y420996D01*
X433705Y421004D01*
X429895Y421004D01*
X429830Y420993D01*
X429764Y420991D01*
X429721Y420973D01*
X429674Y420965D01*
X429617Y420931D01*
X429557Y420906D01*
X429522Y420875D01*
X429481Y420850D01*
X429440Y420799D01*
X429391Y420755D01*
X429369Y420713D01*
X429340Y420676D01*
X429319Y420614D01*
X429288Y420555D01*
X429280Y420501D01*
X429268Y420464D01*
X429268Y420461D01*
X429269Y420424D01*
X429261Y420370D01*
X429261Y417830D01*
X429272Y417765D01*
X429274Y417699D01*
X429292Y417656D01*
X429300Y417609D01*
X429334Y417552D01*
X429359Y417492D01*
X429390Y417457D01*
X429415Y417416D01*
X429466Y417375D01*
X429510Y417326D01*
X429552Y417304D01*
X429589Y417275D01*
X429651Y417254D01*
X429710Y417223D01*
X429764Y417215D01*
X429801Y417203D01*
X429841Y417204D01*
X429895Y417196D01*
X433705Y417196D01*
X433770Y417207D01*
G37*
G36*
X1099250Y391807D02*
X1099250Y391807D01*
X1099316Y391809D01*
X1099359Y391827D01*
X1099406Y391835D01*
X1099463Y391869D01*
X1099523Y391894D01*
X1099558Y391925D01*
X1099599Y391950D01*
X1099641Y392001D01*
X1099689Y392045D01*
X1099711Y392087D01*
X1099740Y392124D01*
X1099761Y392186D01*
X1099792Y392245D01*
X1099800Y392299D01*
X1099812Y392336D01*
X1099811Y392376D01*
X1099819Y392430D01*
X1099819Y394970D01*
X1099808Y395035D01*
X1099806Y395101D01*
X1099788Y395144D01*
X1099780Y395191D01*
X1099746Y395248D01*
X1099721Y395308D01*
X1099690Y395343D01*
X1099665Y395384D01*
X1099614Y395426D01*
X1099570Y395474D01*
X1099528Y395496D01*
X1099491Y395525D01*
X1099429Y395546D01*
X1099370Y395577D01*
X1099316Y395585D01*
X1099279Y395597D01*
X1099239Y395596D01*
X1099185Y395604D01*
X1095375Y395604D01*
X1095310Y395593D01*
X1095244Y395591D01*
X1095201Y395573D01*
X1095154Y395565D01*
X1095097Y395531D01*
X1095037Y395506D01*
X1095002Y395475D01*
X1094961Y395450D01*
X1094920Y395399D01*
X1094871Y395355D01*
X1094849Y395313D01*
X1094820Y395276D01*
X1094799Y395214D01*
X1094768Y395155D01*
X1094760Y395101D01*
X1094748Y395064D01*
X1094748Y395061D01*
X1094749Y395024D01*
X1094741Y394970D01*
X1094741Y392430D01*
X1094752Y392365D01*
X1094754Y392299D01*
X1094772Y392256D01*
X1094780Y392209D01*
X1094814Y392152D01*
X1094839Y392092D01*
X1094870Y392057D01*
X1094895Y392016D01*
X1094946Y391975D01*
X1094990Y391926D01*
X1095032Y391904D01*
X1095069Y391875D01*
X1095131Y391854D01*
X1095190Y391823D01*
X1095244Y391815D01*
X1095281Y391803D01*
X1095321Y391804D01*
X1095375Y391796D01*
X1099185Y391796D01*
X1099250Y391807D01*
G37*
G36*
X433770Y391807D02*
X433770Y391807D01*
X433836Y391809D01*
X433879Y391827D01*
X433926Y391835D01*
X433983Y391869D01*
X434043Y391894D01*
X434078Y391925D01*
X434119Y391950D01*
X434161Y392001D01*
X434209Y392045D01*
X434231Y392087D01*
X434260Y392124D01*
X434281Y392186D01*
X434312Y392245D01*
X434320Y392299D01*
X434332Y392336D01*
X434331Y392376D01*
X434339Y392430D01*
X434339Y394970D01*
X434328Y395035D01*
X434326Y395101D01*
X434308Y395144D01*
X434300Y395191D01*
X434266Y395248D01*
X434241Y395308D01*
X434210Y395343D01*
X434185Y395384D01*
X434134Y395426D01*
X434090Y395474D01*
X434048Y395496D01*
X434011Y395525D01*
X433949Y395546D01*
X433890Y395577D01*
X433836Y395585D01*
X433799Y395597D01*
X433759Y395596D01*
X433705Y395604D01*
X429895Y395604D01*
X429830Y395593D01*
X429764Y395591D01*
X429721Y395573D01*
X429674Y395565D01*
X429617Y395531D01*
X429557Y395506D01*
X429522Y395475D01*
X429481Y395450D01*
X429440Y395399D01*
X429391Y395355D01*
X429369Y395313D01*
X429340Y395276D01*
X429319Y395214D01*
X429288Y395155D01*
X429280Y395101D01*
X429268Y395064D01*
X429268Y395061D01*
X429269Y395024D01*
X429261Y394970D01*
X429261Y392430D01*
X429272Y392365D01*
X429274Y392299D01*
X429292Y392256D01*
X429300Y392209D01*
X429334Y392152D01*
X429359Y392092D01*
X429390Y392057D01*
X429415Y392016D01*
X429466Y391975D01*
X429510Y391926D01*
X429552Y391904D01*
X429589Y391875D01*
X429651Y391854D01*
X429710Y391823D01*
X429764Y391815D01*
X429801Y391803D01*
X429841Y391804D01*
X429895Y391796D01*
X433705Y391796D01*
X433770Y391807D01*
G37*
G36*
X433770Y366407D02*
X433770Y366407D01*
X433836Y366409D01*
X433879Y366427D01*
X433926Y366435D01*
X433983Y366469D01*
X434043Y366494D01*
X434078Y366525D01*
X434119Y366550D01*
X434161Y366601D01*
X434209Y366645D01*
X434231Y366687D01*
X434260Y366724D01*
X434281Y366786D01*
X434312Y366845D01*
X434320Y366899D01*
X434332Y366936D01*
X434331Y366976D01*
X434339Y367030D01*
X434339Y369570D01*
X434328Y369635D01*
X434326Y369701D01*
X434308Y369744D01*
X434300Y369791D01*
X434266Y369848D01*
X434241Y369908D01*
X434210Y369943D01*
X434185Y369984D01*
X434134Y370026D01*
X434090Y370074D01*
X434048Y370096D01*
X434011Y370125D01*
X433949Y370146D01*
X433890Y370177D01*
X433836Y370185D01*
X433799Y370197D01*
X433759Y370196D01*
X433705Y370204D01*
X429895Y370204D01*
X429830Y370193D01*
X429764Y370191D01*
X429721Y370173D01*
X429674Y370165D01*
X429617Y370131D01*
X429557Y370106D01*
X429522Y370075D01*
X429481Y370050D01*
X429440Y369999D01*
X429391Y369955D01*
X429369Y369913D01*
X429340Y369876D01*
X429319Y369814D01*
X429288Y369755D01*
X429280Y369701D01*
X429268Y369664D01*
X429268Y369661D01*
X429269Y369624D01*
X429261Y369570D01*
X429261Y367030D01*
X429272Y366965D01*
X429274Y366899D01*
X429292Y366856D01*
X429300Y366809D01*
X429334Y366752D01*
X429359Y366692D01*
X429390Y366657D01*
X429415Y366616D01*
X429466Y366575D01*
X429510Y366526D01*
X429552Y366504D01*
X429589Y366475D01*
X429651Y366454D01*
X429710Y366423D01*
X429764Y366415D01*
X429801Y366403D01*
X429841Y366404D01*
X429895Y366396D01*
X433705Y366396D01*
X433770Y366407D01*
G37*
G36*
X1099250Y366407D02*
X1099250Y366407D01*
X1099316Y366409D01*
X1099359Y366427D01*
X1099406Y366435D01*
X1099463Y366469D01*
X1099523Y366494D01*
X1099558Y366525D01*
X1099599Y366550D01*
X1099641Y366601D01*
X1099689Y366645D01*
X1099711Y366687D01*
X1099740Y366724D01*
X1099761Y366786D01*
X1099792Y366845D01*
X1099800Y366899D01*
X1099812Y366936D01*
X1099811Y366976D01*
X1099819Y367030D01*
X1099819Y369570D01*
X1099808Y369635D01*
X1099806Y369701D01*
X1099788Y369744D01*
X1099780Y369791D01*
X1099746Y369848D01*
X1099721Y369908D01*
X1099690Y369943D01*
X1099665Y369984D01*
X1099614Y370026D01*
X1099570Y370074D01*
X1099528Y370096D01*
X1099491Y370125D01*
X1099429Y370146D01*
X1099370Y370177D01*
X1099316Y370185D01*
X1099279Y370197D01*
X1099239Y370196D01*
X1099185Y370204D01*
X1095375Y370204D01*
X1095310Y370193D01*
X1095244Y370191D01*
X1095201Y370173D01*
X1095154Y370165D01*
X1095097Y370131D01*
X1095037Y370106D01*
X1095002Y370075D01*
X1094961Y370050D01*
X1094920Y369999D01*
X1094871Y369955D01*
X1094849Y369913D01*
X1094820Y369876D01*
X1094799Y369814D01*
X1094768Y369755D01*
X1094760Y369701D01*
X1094748Y369664D01*
X1094748Y369661D01*
X1094749Y369624D01*
X1094741Y369570D01*
X1094741Y367030D01*
X1094752Y366965D01*
X1094754Y366899D01*
X1094772Y366856D01*
X1094780Y366809D01*
X1094814Y366752D01*
X1094839Y366692D01*
X1094870Y366657D01*
X1094895Y366616D01*
X1094946Y366575D01*
X1094990Y366526D01*
X1095032Y366504D01*
X1095069Y366475D01*
X1095131Y366454D01*
X1095190Y366423D01*
X1095244Y366415D01*
X1095281Y366403D01*
X1095321Y366404D01*
X1095375Y366396D01*
X1099185Y366396D01*
X1099250Y366407D01*
G37*
G36*
X1094170Y315607D02*
X1094170Y315607D01*
X1094236Y315609D01*
X1094279Y315627D01*
X1094326Y315635D01*
X1094383Y315669D01*
X1094443Y315694D01*
X1094478Y315725D01*
X1094519Y315750D01*
X1094561Y315801D01*
X1094609Y315845D01*
X1094631Y315887D01*
X1094660Y315924D01*
X1094681Y315986D01*
X1094712Y316045D01*
X1094720Y316099D01*
X1094732Y316136D01*
X1094731Y316176D01*
X1094739Y316230D01*
X1094739Y318770D01*
X1094728Y318835D01*
X1094726Y318901D01*
X1094708Y318944D01*
X1094700Y318991D01*
X1094666Y319048D01*
X1094641Y319108D01*
X1094610Y319143D01*
X1094585Y319184D01*
X1094534Y319226D01*
X1094490Y319274D01*
X1094448Y319296D01*
X1094411Y319325D01*
X1094349Y319346D01*
X1094290Y319377D01*
X1094236Y319385D01*
X1094199Y319397D01*
X1094159Y319396D01*
X1094105Y319404D01*
X1090295Y319404D01*
X1090230Y319393D01*
X1090164Y319391D01*
X1090121Y319373D01*
X1090074Y319365D01*
X1090017Y319331D01*
X1089957Y319306D01*
X1089922Y319275D01*
X1089881Y319250D01*
X1089840Y319199D01*
X1089791Y319155D01*
X1089769Y319113D01*
X1089740Y319076D01*
X1089719Y319014D01*
X1089688Y318955D01*
X1089680Y318901D01*
X1089668Y318864D01*
X1089668Y318861D01*
X1089669Y318824D01*
X1089661Y318770D01*
X1089661Y316230D01*
X1089672Y316165D01*
X1089674Y316099D01*
X1089692Y316056D01*
X1089700Y316009D01*
X1089734Y315952D01*
X1089759Y315892D01*
X1089790Y315857D01*
X1089815Y315816D01*
X1089866Y315775D01*
X1089910Y315726D01*
X1089952Y315704D01*
X1089989Y315675D01*
X1090051Y315654D01*
X1090110Y315623D01*
X1090164Y315615D01*
X1090201Y315603D01*
X1090241Y315604D01*
X1090295Y315596D01*
X1094105Y315596D01*
X1094170Y315607D01*
G37*
G36*
X428690Y315607D02*
X428690Y315607D01*
X428756Y315609D01*
X428799Y315627D01*
X428846Y315635D01*
X428903Y315669D01*
X428963Y315694D01*
X428998Y315725D01*
X429039Y315750D01*
X429081Y315801D01*
X429129Y315845D01*
X429151Y315887D01*
X429180Y315924D01*
X429201Y315986D01*
X429232Y316045D01*
X429240Y316099D01*
X429252Y316136D01*
X429251Y316176D01*
X429259Y316230D01*
X429259Y318770D01*
X429248Y318835D01*
X429246Y318901D01*
X429228Y318944D01*
X429220Y318991D01*
X429186Y319048D01*
X429161Y319108D01*
X429130Y319143D01*
X429105Y319184D01*
X429054Y319226D01*
X429010Y319274D01*
X428968Y319296D01*
X428931Y319325D01*
X428869Y319346D01*
X428810Y319377D01*
X428756Y319385D01*
X428719Y319397D01*
X428679Y319396D01*
X428625Y319404D01*
X424815Y319404D01*
X424750Y319393D01*
X424684Y319391D01*
X424641Y319373D01*
X424594Y319365D01*
X424537Y319331D01*
X424477Y319306D01*
X424442Y319275D01*
X424401Y319250D01*
X424360Y319199D01*
X424311Y319155D01*
X424289Y319113D01*
X424260Y319076D01*
X424239Y319014D01*
X424208Y318955D01*
X424200Y318901D01*
X424188Y318864D01*
X424188Y318861D01*
X424189Y318824D01*
X424181Y318770D01*
X424181Y316230D01*
X424192Y316165D01*
X424194Y316099D01*
X424212Y316056D01*
X424220Y316009D01*
X424254Y315952D01*
X424279Y315892D01*
X424310Y315857D01*
X424335Y315816D01*
X424386Y315775D01*
X424430Y315726D01*
X424472Y315704D01*
X424509Y315675D01*
X424571Y315654D01*
X424630Y315623D01*
X424684Y315615D01*
X424721Y315603D01*
X424761Y315604D01*
X424815Y315596D01*
X428625Y315596D01*
X428690Y315607D01*
G37*
G36*
X433770Y1006487D02*
X433770Y1006487D01*
X433836Y1006489D01*
X433879Y1006507D01*
X433926Y1006515D01*
X433983Y1006549D01*
X434043Y1006574D01*
X434078Y1006605D01*
X434119Y1006630D01*
X434161Y1006681D01*
X434209Y1006725D01*
X434231Y1006767D01*
X434260Y1006804D01*
X434281Y1006866D01*
X434312Y1006925D01*
X434320Y1006979D01*
X434332Y1007016D01*
X434331Y1007056D01*
X434339Y1007110D01*
X434339Y1009650D01*
X434328Y1009715D01*
X434326Y1009781D01*
X434308Y1009824D01*
X434300Y1009871D01*
X434266Y1009928D01*
X434241Y1009988D01*
X434210Y1010023D01*
X434185Y1010064D01*
X434134Y1010106D01*
X434090Y1010154D01*
X434048Y1010176D01*
X434011Y1010205D01*
X433949Y1010226D01*
X433890Y1010257D01*
X433836Y1010265D01*
X433799Y1010277D01*
X433759Y1010276D01*
X433705Y1010284D01*
X429895Y1010284D01*
X429830Y1010273D01*
X429764Y1010271D01*
X429721Y1010253D01*
X429674Y1010245D01*
X429617Y1010211D01*
X429557Y1010186D01*
X429522Y1010155D01*
X429481Y1010130D01*
X429440Y1010079D01*
X429391Y1010035D01*
X429369Y1009993D01*
X429340Y1009956D01*
X429319Y1009894D01*
X429288Y1009835D01*
X429280Y1009781D01*
X429268Y1009744D01*
X429268Y1009741D01*
X429269Y1009704D01*
X429261Y1009650D01*
X429261Y1007110D01*
X429272Y1007045D01*
X429274Y1006979D01*
X429292Y1006936D01*
X429300Y1006889D01*
X429334Y1006832D01*
X429359Y1006772D01*
X429390Y1006737D01*
X429415Y1006696D01*
X429466Y1006655D01*
X429510Y1006606D01*
X429552Y1006584D01*
X429589Y1006555D01*
X429651Y1006534D01*
X429710Y1006503D01*
X429764Y1006495D01*
X429801Y1006483D01*
X429841Y1006484D01*
X429895Y1006476D01*
X433705Y1006476D01*
X433770Y1006487D01*
G37*
G36*
X1099250Y981087D02*
X1099250Y981087D01*
X1099316Y981089D01*
X1099359Y981107D01*
X1099406Y981115D01*
X1099463Y981149D01*
X1099523Y981174D01*
X1099558Y981205D01*
X1099599Y981230D01*
X1099641Y981281D01*
X1099689Y981325D01*
X1099711Y981367D01*
X1099740Y981404D01*
X1099761Y981466D01*
X1099792Y981525D01*
X1099800Y981579D01*
X1099812Y981616D01*
X1099811Y981656D01*
X1099819Y981710D01*
X1099819Y984250D01*
X1099808Y984315D01*
X1099806Y984381D01*
X1099788Y984424D01*
X1099780Y984471D01*
X1099746Y984528D01*
X1099721Y984588D01*
X1099690Y984623D01*
X1099665Y984664D01*
X1099614Y984706D01*
X1099570Y984754D01*
X1099528Y984776D01*
X1099491Y984805D01*
X1099429Y984826D01*
X1099370Y984857D01*
X1099316Y984865D01*
X1099279Y984877D01*
X1099239Y984876D01*
X1099185Y984884D01*
X1095375Y984884D01*
X1095310Y984873D01*
X1095244Y984871D01*
X1095201Y984853D01*
X1095154Y984845D01*
X1095097Y984811D01*
X1095037Y984786D01*
X1095002Y984755D01*
X1094961Y984730D01*
X1094920Y984679D01*
X1094871Y984635D01*
X1094849Y984593D01*
X1094820Y984556D01*
X1094799Y984494D01*
X1094768Y984435D01*
X1094760Y984381D01*
X1094748Y984344D01*
X1094748Y984341D01*
X1094749Y984304D01*
X1094741Y984250D01*
X1094741Y981710D01*
X1094752Y981645D01*
X1094754Y981579D01*
X1094772Y981536D01*
X1094780Y981489D01*
X1094814Y981432D01*
X1094839Y981372D01*
X1094870Y981337D01*
X1094895Y981296D01*
X1094946Y981255D01*
X1094990Y981206D01*
X1095032Y981184D01*
X1095069Y981155D01*
X1095131Y981134D01*
X1095190Y981103D01*
X1095244Y981095D01*
X1095281Y981083D01*
X1095321Y981084D01*
X1095375Y981076D01*
X1099185Y981076D01*
X1099250Y981087D01*
G37*
G36*
X433770Y981087D02*
X433770Y981087D01*
X433836Y981089D01*
X433879Y981107D01*
X433926Y981115D01*
X433983Y981149D01*
X434043Y981174D01*
X434078Y981205D01*
X434119Y981230D01*
X434161Y981281D01*
X434209Y981325D01*
X434231Y981367D01*
X434260Y981404D01*
X434281Y981466D01*
X434312Y981525D01*
X434320Y981579D01*
X434332Y981616D01*
X434331Y981656D01*
X434339Y981710D01*
X434339Y984250D01*
X434328Y984315D01*
X434326Y984381D01*
X434308Y984424D01*
X434300Y984471D01*
X434266Y984528D01*
X434241Y984588D01*
X434210Y984623D01*
X434185Y984664D01*
X434134Y984706D01*
X434090Y984754D01*
X434048Y984776D01*
X434011Y984805D01*
X433949Y984826D01*
X433890Y984857D01*
X433836Y984865D01*
X433799Y984877D01*
X433759Y984876D01*
X433705Y984884D01*
X429895Y984884D01*
X429830Y984873D01*
X429764Y984871D01*
X429721Y984853D01*
X429674Y984845D01*
X429617Y984811D01*
X429557Y984786D01*
X429522Y984755D01*
X429481Y984730D01*
X429440Y984679D01*
X429391Y984635D01*
X429369Y984593D01*
X429340Y984556D01*
X429319Y984494D01*
X429288Y984435D01*
X429280Y984381D01*
X429268Y984344D01*
X429268Y984341D01*
X429269Y984304D01*
X429261Y984250D01*
X429261Y981710D01*
X429272Y981645D01*
X429274Y981579D01*
X429292Y981536D01*
X429300Y981489D01*
X429334Y981432D01*
X429359Y981372D01*
X429390Y981337D01*
X429415Y981296D01*
X429466Y981255D01*
X429510Y981206D01*
X429552Y981184D01*
X429589Y981155D01*
X429651Y981134D01*
X429710Y981103D01*
X429764Y981095D01*
X429801Y981083D01*
X429841Y981084D01*
X429895Y981076D01*
X433705Y981076D01*
X433770Y981087D01*
G37*
G36*
X1099250Y493407D02*
X1099250Y493407D01*
X1099316Y493409D01*
X1099359Y493427D01*
X1099406Y493435D01*
X1099463Y493469D01*
X1099523Y493494D01*
X1099558Y493525D01*
X1099599Y493550D01*
X1099641Y493601D01*
X1099689Y493645D01*
X1099711Y493687D01*
X1099740Y493724D01*
X1099761Y493786D01*
X1099792Y493845D01*
X1099800Y493899D01*
X1099812Y493936D01*
X1099811Y493976D01*
X1099819Y494030D01*
X1099819Y496570D01*
X1099808Y496635D01*
X1099806Y496701D01*
X1099788Y496744D01*
X1099780Y496791D01*
X1099746Y496848D01*
X1099721Y496908D01*
X1099690Y496943D01*
X1099665Y496984D01*
X1099614Y497026D01*
X1099570Y497074D01*
X1099528Y497096D01*
X1099491Y497125D01*
X1099429Y497146D01*
X1099370Y497177D01*
X1099316Y497185D01*
X1099279Y497197D01*
X1099239Y497196D01*
X1099185Y497204D01*
X1095375Y497204D01*
X1095310Y497193D01*
X1095244Y497191D01*
X1095201Y497173D01*
X1095154Y497165D01*
X1095097Y497131D01*
X1095037Y497106D01*
X1095002Y497075D01*
X1094961Y497050D01*
X1094920Y496999D01*
X1094871Y496955D01*
X1094849Y496913D01*
X1094820Y496876D01*
X1094799Y496814D01*
X1094768Y496755D01*
X1094760Y496701D01*
X1094748Y496664D01*
X1094748Y496661D01*
X1094749Y496624D01*
X1094741Y496570D01*
X1094741Y494030D01*
X1094752Y493965D01*
X1094754Y493899D01*
X1094772Y493856D01*
X1094780Y493809D01*
X1094814Y493752D01*
X1094839Y493692D01*
X1094870Y493657D01*
X1094895Y493616D01*
X1094946Y493575D01*
X1094990Y493526D01*
X1095032Y493504D01*
X1095069Y493475D01*
X1095131Y493454D01*
X1095190Y493423D01*
X1095244Y493415D01*
X1095281Y493403D01*
X1095321Y493404D01*
X1095375Y493396D01*
X1099185Y493396D01*
X1099250Y493407D01*
G37*
D10*
X628650Y501650D03*
X6350Y6350D03*
D11*
X49050Y130500D03*
X49050Y72700D03*
D12*
X577460Y374060D02*
X577460Y387940D01*
X616340Y387940D01*
X616340Y374060D01*
X577460Y374060D01*
X577460Y376572D02*
X616340Y376572D01*
X616340Y379084D02*
X577460Y379084D01*
X577460Y381596D02*
X616340Y381596D01*
X616340Y384108D02*
X577460Y384108D01*
X577460Y386620D02*
X616340Y386620D01*
X577460Y337140D02*
X577460Y323260D01*
X577460Y337140D02*
X616340Y337140D01*
X616340Y323260D01*
X577460Y323260D01*
X577460Y325772D02*
X616340Y325772D01*
X616340Y328284D02*
X577460Y328284D01*
X577460Y330796D02*
X616340Y330796D01*
X616340Y333308D02*
X577460Y333308D01*
X577460Y335820D02*
X616340Y335820D01*
D13*
X439811Y475752D02*
X434203Y475752D01*
X439811Y475752D02*
X439811Y464048D01*
X434203Y464048D01*
X434203Y475752D01*
X434203Y466442D02*
X439811Y466442D01*
X439811Y468836D02*
X434203Y468836D01*
X434203Y471230D02*
X439811Y471230D01*
X439811Y473624D02*
X434203Y473624D01*
X429397Y475752D02*
X423789Y475752D01*
X429397Y475752D02*
X429397Y464048D01*
X423789Y464048D01*
X423789Y475752D01*
X423789Y466442D02*
X429397Y466442D01*
X429397Y468836D02*
X423789Y468836D01*
X423789Y471230D02*
X429397Y471230D01*
X429397Y473624D02*
X423789Y473624D01*
X434203Y450352D02*
X439811Y450352D01*
X439811Y438648D01*
X434203Y438648D01*
X434203Y450352D01*
X434203Y441042D02*
X439811Y441042D01*
X439811Y443436D02*
X434203Y443436D01*
X434203Y445830D02*
X439811Y445830D01*
X439811Y448224D02*
X434203Y448224D01*
X429397Y450352D02*
X423789Y450352D01*
X429397Y450352D02*
X429397Y438648D01*
X423789Y438648D01*
X423789Y450352D01*
X423789Y441042D02*
X429397Y441042D01*
X429397Y443436D02*
X423789Y443436D01*
X423789Y445830D02*
X429397Y445830D01*
X429397Y448224D02*
X423789Y448224D01*
X434203Y501152D02*
X439811Y501152D01*
X439811Y489448D01*
X434203Y489448D01*
X434203Y501152D01*
X434203Y491842D02*
X439811Y491842D01*
X439811Y494236D02*
X434203Y494236D01*
X434203Y496630D02*
X439811Y496630D01*
X439811Y499024D02*
X434203Y499024D01*
X429397Y501152D02*
X423789Y501152D01*
X429397Y501152D02*
X429397Y489448D01*
X423789Y489448D01*
X423789Y501152D01*
X423789Y491842D02*
X429397Y491842D01*
X429397Y494236D02*
X423789Y494236D01*
X423789Y496630D02*
X429397Y496630D01*
X429397Y499024D02*
X423789Y499024D01*
X513852Y73797D02*
X513852Y68189D01*
X502148Y68189D01*
X502148Y73797D01*
X513852Y73797D01*
X513852Y70583D02*
X502148Y70583D01*
X502148Y72977D02*
X513852Y72977D01*
X513852Y78603D02*
X513852Y84211D01*
X513852Y78603D02*
X502148Y78603D01*
X502148Y84211D01*
X513852Y84211D01*
X513852Y80997D02*
X502148Y80997D01*
X502148Y83391D02*
X513852Y83391D01*
D12*
X577460Y170860D02*
X577460Y184740D01*
X616340Y184740D01*
X616340Y170860D01*
X577460Y170860D01*
X577460Y173372D02*
X616340Y173372D01*
X616340Y175884D02*
X577460Y175884D01*
X577460Y178396D02*
X616340Y178396D01*
X616340Y180908D02*
X577460Y180908D01*
X577460Y183420D02*
X616340Y183420D01*
X577460Y133940D02*
X577460Y120060D01*
X577460Y133940D02*
X616340Y133940D01*
X616340Y120060D01*
X577460Y120060D01*
X577460Y122572D02*
X616340Y122572D01*
X616340Y125084D02*
X577460Y125084D01*
X577460Y127596D02*
X616340Y127596D01*
X616340Y130108D02*
X577460Y130108D01*
X577460Y132620D02*
X616340Y132620D01*
D14*
X609600Y482600D03*
X25400Y482600D03*
X609600Y25400D03*
X25400Y25400D03*
D15*
X381000Y12700D03*
X355600Y12700D03*
D16*
X38100Y325100D03*
X38100Y405100D03*
D13*
X83048Y223657D02*
X83048Y218303D01*
X83048Y223657D02*
X94752Y223657D01*
X94752Y218303D01*
X83048Y218303D01*
X83048Y220697D02*
X94752Y220697D01*
X94752Y223091D02*
X83048Y223091D01*
X83048Y213497D02*
X83048Y208143D01*
X83048Y213497D02*
X94752Y213497D01*
X94752Y208143D01*
X83048Y208143D01*
X83048Y210537D02*
X94752Y210537D01*
X94752Y212931D02*
X83048Y212931D01*
D15*
X88900Y228600D03*
X88900Y203200D03*
D13*
X434203Y424952D02*
X439811Y424952D01*
X439811Y413248D01*
X434203Y413248D01*
X434203Y424952D01*
X434203Y415642D02*
X439811Y415642D01*
X439811Y418036D02*
X434203Y418036D01*
X434203Y420430D02*
X439811Y420430D01*
X439811Y422824D02*
X434203Y422824D01*
X429397Y424952D02*
X423789Y424952D01*
X429397Y424952D02*
X429397Y413248D01*
X423789Y413248D01*
X423789Y424952D01*
X423789Y415642D02*
X429397Y415642D01*
X429397Y418036D02*
X423789Y418036D01*
X423789Y420430D02*
X429397Y420430D01*
X429397Y422824D02*
X423789Y422824D01*
D15*
X152400Y12700D03*
X177800Y12700D03*
X203200Y12700D03*
X228600Y12700D03*
X254000Y12700D03*
X279400Y12700D03*
X304800Y12700D03*
X330200Y12700D03*
X101600Y12700D03*
X127000Y12700D03*
D13*
X434203Y374152D02*
X439811Y374152D01*
X439811Y362448D01*
X434203Y362448D01*
X434203Y374152D01*
X434203Y364842D02*
X439811Y364842D01*
X439811Y367236D02*
X434203Y367236D01*
X434203Y369630D02*
X439811Y369630D01*
X439811Y372024D02*
X434203Y372024D01*
X429397Y374152D02*
X423789Y374152D01*
X429397Y374152D02*
X429397Y362448D01*
X423789Y362448D01*
X423789Y374152D01*
X423789Y364842D02*
X429397Y364842D01*
X429397Y367236D02*
X423789Y367236D01*
X423789Y369630D02*
X429397Y369630D01*
X429397Y372024D02*
X423789Y372024D01*
D15*
X177800Y495300D03*
X203200Y495300D03*
X228600Y495300D03*
X254000Y495300D03*
X279400Y495300D03*
X304800Y495300D03*
X330200Y495300D03*
X355600Y495300D03*
X381000Y495300D03*
X406400Y495300D03*
D17*
X31009Y114489D02*
X2011Y114489D01*
X31009Y114489D02*
X31009Y106491D01*
X2011Y106491D01*
X2011Y114489D01*
X2011Y108891D02*
X31009Y108891D01*
X31009Y111291D02*
X2011Y111291D01*
X2011Y113691D02*
X31009Y113691D01*
X31009Y132269D02*
X2011Y132269D01*
X31009Y132269D02*
X31009Y124271D01*
X2011Y124271D01*
X2011Y132269D01*
X2011Y126671D02*
X31009Y126671D01*
X31009Y129071D02*
X2011Y129071D01*
X2011Y131471D02*
X31009Y131471D01*
X31009Y96709D02*
X2011Y96709D01*
X31009Y96709D02*
X31009Y88711D01*
X2011Y88711D01*
X2011Y96709D01*
X2011Y91111D02*
X31009Y91111D01*
X31009Y93511D02*
X2011Y93511D01*
X2011Y95911D02*
X31009Y95911D01*
X31009Y78929D02*
X2011Y78929D01*
X31009Y78929D02*
X31009Y70931D01*
X2011Y70931D01*
X2011Y78929D01*
X2011Y73331D02*
X31009Y73331D01*
X31009Y75731D02*
X2011Y75731D01*
X2011Y78131D02*
X31009Y78131D01*
X31009Y246569D02*
X2011Y246569D01*
X31009Y246569D02*
X31009Y238571D01*
X2011Y238571D01*
X2011Y246569D01*
X2011Y240971D02*
X31009Y240971D01*
X31009Y243371D02*
X2011Y243371D01*
X2011Y245771D02*
X31009Y245771D01*
X31009Y264349D02*
X2011Y264349D01*
X31009Y264349D02*
X31009Y256351D01*
X2011Y256351D01*
X2011Y264349D01*
X2011Y258751D02*
X31009Y258751D01*
X31009Y261151D02*
X2011Y261151D01*
X2011Y263551D02*
X31009Y263551D01*
X31009Y228789D02*
X2011Y228789D01*
X31009Y228789D02*
X31009Y220791D01*
X2011Y220791D01*
X2011Y228789D01*
X2011Y223191D02*
X31009Y223191D01*
X31009Y225591D02*
X2011Y225591D01*
X2011Y227991D02*
X31009Y227991D01*
X31009Y211009D02*
X2011Y211009D01*
X31009Y211009D02*
X31009Y203011D01*
X2011Y203011D01*
X2011Y211009D01*
X2011Y205411D02*
X31009Y205411D01*
X31009Y207811D02*
X2011Y207811D01*
X2011Y210211D02*
X31009Y210211D01*
X31009Y193229D02*
X2011Y193229D01*
X31009Y193229D02*
X31009Y185231D01*
X2011Y185231D01*
X2011Y193229D01*
X2011Y187631D02*
X31009Y187631D01*
X31009Y190031D02*
X2011Y190031D01*
X2011Y192431D02*
X31009Y192431D01*
X31009Y175449D02*
X2011Y175449D01*
X31009Y175449D02*
X31009Y167451D01*
X2011Y167451D01*
X2011Y175449D01*
X2011Y169851D02*
X31009Y169851D01*
X31009Y172251D02*
X2011Y172251D01*
X2011Y174651D02*
X31009Y174651D01*
D13*
X434203Y399552D02*
X439811Y399552D01*
X439811Y387848D01*
X434203Y387848D01*
X434203Y399552D01*
X434203Y390242D02*
X439811Y390242D01*
X439811Y392636D02*
X434203Y392636D01*
X434203Y395030D02*
X439811Y395030D01*
X439811Y397424D02*
X434203Y397424D01*
X429397Y399552D02*
X423789Y399552D01*
X429397Y399552D02*
X429397Y387848D01*
X423789Y387848D01*
X423789Y399552D01*
X423789Y390242D02*
X429397Y390242D01*
X429397Y392636D02*
X423789Y392636D01*
X423789Y395030D02*
X429397Y395030D01*
X429397Y397424D02*
X423789Y397424D01*
X439410Y323352D02*
X445018Y323352D01*
X445018Y311648D01*
X439410Y311648D01*
X439410Y323352D01*
X439410Y314042D02*
X445018Y314042D01*
X445018Y316436D02*
X439410Y316436D01*
X439410Y318830D02*
X445018Y318830D01*
X445018Y321224D02*
X439410Y321224D01*
X434604Y323352D02*
X428996Y323352D01*
X434604Y323352D02*
X434604Y311648D01*
X428996Y311648D01*
X428996Y323352D01*
X428996Y314042D02*
X434604Y314042D01*
X434604Y316436D02*
X428996Y316436D01*
X428996Y318830D02*
X434604Y318830D01*
X434604Y321224D02*
X428996Y321224D01*
X424190Y323352D02*
X418582Y323352D01*
X424190Y323352D02*
X424190Y311648D01*
X418582Y311648D01*
X418582Y323352D01*
X418582Y314042D02*
X424190Y314042D01*
X424190Y316436D02*
X418582Y316436D01*
X418582Y318830D02*
X424190Y318830D01*
X424190Y321224D02*
X418582Y321224D01*
D15*
X406400Y12700D03*
X431800Y12700D03*
X457200Y12700D03*
X482600Y12700D03*
X508000Y12700D03*
X533400Y12700D03*
X558800Y12700D03*
D10*
X1294130Y501650D03*
X671830Y6350D03*
D11*
X714530Y130500D03*
X714530Y72700D03*
D12*
X1242940Y374060D02*
X1242940Y387940D01*
X1281820Y387940D01*
X1281820Y374060D01*
X1242940Y374060D01*
X1242940Y376572D02*
X1281820Y376572D01*
X1281820Y379084D02*
X1242940Y379084D01*
X1242940Y381596D02*
X1281820Y381596D01*
X1281820Y384108D02*
X1242940Y384108D01*
X1242940Y386620D02*
X1281820Y386620D01*
X1242940Y337140D02*
X1242940Y323260D01*
X1242940Y337140D02*
X1281820Y337140D01*
X1281820Y323260D01*
X1242940Y323260D01*
X1242940Y325772D02*
X1281820Y325772D01*
X1281820Y328284D02*
X1242940Y328284D01*
X1242940Y330796D02*
X1281820Y330796D01*
X1281820Y333308D02*
X1242940Y333308D01*
X1242940Y335820D02*
X1281820Y335820D01*
D13*
X1105291Y475752D02*
X1099683Y475752D01*
X1105291Y475752D02*
X1105291Y464048D01*
X1099683Y464048D01*
X1099683Y475752D01*
X1099683Y466442D02*
X1105291Y466442D01*
X1105291Y468836D02*
X1099683Y468836D01*
X1099683Y471230D02*
X1105291Y471230D01*
X1105291Y473624D02*
X1099683Y473624D01*
X1094877Y475752D02*
X1089269Y475752D01*
X1094877Y475752D02*
X1094877Y464048D01*
X1089269Y464048D01*
X1089269Y475752D01*
X1089269Y466442D02*
X1094877Y466442D01*
X1094877Y468836D02*
X1089269Y468836D01*
X1089269Y471230D02*
X1094877Y471230D01*
X1094877Y473624D02*
X1089269Y473624D01*
X1099683Y450352D02*
X1105291Y450352D01*
X1105291Y438648D01*
X1099683Y438648D01*
X1099683Y450352D01*
X1099683Y441042D02*
X1105291Y441042D01*
X1105291Y443436D02*
X1099683Y443436D01*
X1099683Y445830D02*
X1105291Y445830D01*
X1105291Y448224D02*
X1099683Y448224D01*
X1094877Y450352D02*
X1089269Y450352D01*
X1094877Y450352D02*
X1094877Y438648D01*
X1089269Y438648D01*
X1089269Y450352D01*
X1089269Y441042D02*
X1094877Y441042D01*
X1094877Y443436D02*
X1089269Y443436D01*
X1089269Y445830D02*
X1094877Y445830D01*
X1094877Y448224D02*
X1089269Y448224D01*
X1099683Y501152D02*
X1105291Y501152D01*
X1105291Y489448D01*
X1099683Y489448D01*
X1099683Y501152D01*
X1099683Y491842D02*
X1105291Y491842D01*
X1105291Y494236D02*
X1099683Y494236D01*
X1099683Y496630D02*
X1105291Y496630D01*
X1105291Y499024D02*
X1099683Y499024D01*
X1094877Y501152D02*
X1089269Y501152D01*
X1094877Y501152D02*
X1094877Y489448D01*
X1089269Y489448D01*
X1089269Y501152D01*
X1089269Y491842D02*
X1094877Y491842D01*
X1094877Y494236D02*
X1089269Y494236D01*
X1089269Y496630D02*
X1094877Y496630D01*
X1094877Y499024D02*
X1089269Y499024D01*
X1179332Y73797D02*
X1179332Y68189D01*
X1167628Y68189D01*
X1167628Y73797D01*
X1179332Y73797D01*
X1179332Y70583D02*
X1167628Y70583D01*
X1167628Y72977D02*
X1179332Y72977D01*
X1179332Y78603D02*
X1179332Y84211D01*
X1179332Y78603D02*
X1167628Y78603D01*
X1167628Y84211D01*
X1179332Y84211D01*
X1179332Y80997D02*
X1167628Y80997D01*
X1167628Y83391D02*
X1179332Y83391D01*
D12*
X1242940Y170860D02*
X1242940Y184740D01*
X1281820Y184740D01*
X1281820Y170860D01*
X1242940Y170860D01*
X1242940Y173372D02*
X1281820Y173372D01*
X1281820Y175884D02*
X1242940Y175884D01*
X1242940Y178396D02*
X1281820Y178396D01*
X1281820Y180908D02*
X1242940Y180908D01*
X1242940Y183420D02*
X1281820Y183420D01*
X1242940Y133940D02*
X1242940Y120060D01*
X1242940Y133940D02*
X1281820Y133940D01*
X1281820Y120060D01*
X1242940Y120060D01*
X1242940Y122572D02*
X1281820Y122572D01*
X1281820Y125084D02*
X1242940Y125084D01*
X1242940Y127596D02*
X1281820Y127596D01*
X1281820Y130108D02*
X1242940Y130108D01*
X1242940Y132620D02*
X1281820Y132620D01*
D14*
X1275080Y482600D03*
X690880Y482600D03*
X1275080Y25400D03*
X690880Y25400D03*
D15*
X1046480Y12700D03*
X1021080Y12700D03*
D16*
X703580Y325100D03*
X703580Y405100D03*
D13*
X748528Y223657D02*
X748528Y218303D01*
X748528Y223657D02*
X760232Y223657D01*
X760232Y218303D01*
X748528Y218303D01*
X748528Y220697D02*
X760232Y220697D01*
X760232Y223091D02*
X748528Y223091D01*
X748528Y213497D02*
X748528Y208143D01*
X748528Y213497D02*
X760232Y213497D01*
X760232Y208143D01*
X748528Y208143D01*
X748528Y210537D02*
X760232Y210537D01*
X760232Y212931D02*
X748528Y212931D01*
D15*
X754380Y228600D03*
X754380Y203200D03*
D13*
X1099683Y424952D02*
X1105291Y424952D01*
X1105291Y413248D01*
X1099683Y413248D01*
X1099683Y424952D01*
X1099683Y415642D02*
X1105291Y415642D01*
X1105291Y418036D02*
X1099683Y418036D01*
X1099683Y420430D02*
X1105291Y420430D01*
X1105291Y422824D02*
X1099683Y422824D01*
X1094877Y424952D02*
X1089269Y424952D01*
X1094877Y424952D02*
X1094877Y413248D01*
X1089269Y413248D01*
X1089269Y424952D01*
X1089269Y415642D02*
X1094877Y415642D01*
X1094877Y418036D02*
X1089269Y418036D01*
X1089269Y420430D02*
X1094877Y420430D01*
X1094877Y422824D02*
X1089269Y422824D01*
D15*
X817880Y12700D03*
X843280Y12700D03*
X868680Y12700D03*
X894080Y12700D03*
X919480Y12700D03*
X944880Y12700D03*
X970280Y12700D03*
X995680Y12700D03*
X767080Y12700D03*
X792480Y12700D03*
D13*
X1099683Y374152D02*
X1105291Y374152D01*
X1105291Y362448D01*
X1099683Y362448D01*
X1099683Y374152D01*
X1099683Y364842D02*
X1105291Y364842D01*
X1105291Y367236D02*
X1099683Y367236D01*
X1099683Y369630D02*
X1105291Y369630D01*
X1105291Y372024D02*
X1099683Y372024D01*
X1094877Y374152D02*
X1089269Y374152D01*
X1094877Y374152D02*
X1094877Y362448D01*
X1089269Y362448D01*
X1089269Y374152D01*
X1089269Y364842D02*
X1094877Y364842D01*
X1094877Y367236D02*
X1089269Y367236D01*
X1089269Y369630D02*
X1094877Y369630D01*
X1094877Y372024D02*
X1089269Y372024D01*
D15*
X843280Y495300D03*
X868680Y495300D03*
X894080Y495300D03*
X919480Y495300D03*
X944880Y495300D03*
X970280Y495300D03*
X995680Y495300D03*
X1021080Y495300D03*
X1046480Y495300D03*
X1071880Y495300D03*
D17*
X696489Y114489D02*
X667491Y114489D01*
X696489Y114489D02*
X696489Y106491D01*
X667491Y106491D01*
X667491Y114489D01*
X667491Y108891D02*
X696489Y108891D01*
X696489Y111291D02*
X667491Y111291D01*
X667491Y113691D02*
X696489Y113691D01*
X696489Y132269D02*
X667491Y132269D01*
X696489Y132269D02*
X696489Y124271D01*
X667491Y124271D01*
X667491Y132269D01*
X667491Y126671D02*
X696489Y126671D01*
X696489Y129071D02*
X667491Y129071D01*
X667491Y131471D02*
X696489Y131471D01*
X696489Y96709D02*
X667491Y96709D01*
X696489Y96709D02*
X696489Y88711D01*
X667491Y88711D01*
X667491Y96709D01*
X667491Y91111D02*
X696489Y91111D01*
X696489Y93511D02*
X667491Y93511D01*
X667491Y95911D02*
X696489Y95911D01*
X696489Y78929D02*
X667491Y78929D01*
X696489Y78929D02*
X696489Y70931D01*
X667491Y70931D01*
X667491Y78929D01*
X667491Y73331D02*
X696489Y73331D01*
X696489Y75731D02*
X667491Y75731D01*
X667491Y78131D02*
X696489Y78131D01*
X696489Y246569D02*
X667491Y246569D01*
X696489Y246569D02*
X696489Y238571D01*
X667491Y238571D01*
X667491Y246569D01*
X667491Y240971D02*
X696489Y240971D01*
X696489Y243371D02*
X667491Y243371D01*
X667491Y245771D02*
X696489Y245771D01*
X696489Y264349D02*
X667491Y264349D01*
X696489Y264349D02*
X696489Y256351D01*
X667491Y256351D01*
X667491Y264349D01*
X667491Y258751D02*
X696489Y258751D01*
X696489Y261151D02*
X667491Y261151D01*
X667491Y263551D02*
X696489Y263551D01*
X696489Y228789D02*
X667491Y228789D01*
X696489Y228789D02*
X696489Y220791D01*
X667491Y220791D01*
X667491Y228789D01*
X667491Y223191D02*
X696489Y223191D01*
X696489Y225591D02*
X667491Y225591D01*
X667491Y227991D02*
X696489Y227991D01*
X696489Y211009D02*
X667491Y211009D01*
X696489Y211009D02*
X696489Y203011D01*
X667491Y203011D01*
X667491Y211009D01*
X667491Y205411D02*
X696489Y205411D01*
X696489Y207811D02*
X667491Y207811D01*
X667491Y210211D02*
X696489Y210211D01*
X696489Y193229D02*
X667491Y193229D01*
X696489Y193229D02*
X696489Y185231D01*
X667491Y185231D01*
X667491Y193229D01*
X667491Y187631D02*
X696489Y187631D01*
X696489Y190031D02*
X667491Y190031D01*
X667491Y192431D02*
X696489Y192431D01*
X696489Y175449D02*
X667491Y175449D01*
X696489Y175449D02*
X696489Y167451D01*
X667491Y167451D01*
X667491Y175449D01*
X667491Y169851D02*
X696489Y169851D01*
X696489Y172251D02*
X667491Y172251D01*
X667491Y174651D02*
X696489Y174651D01*
D13*
X1099683Y399552D02*
X1105291Y399552D01*
X1105291Y387848D01*
X1099683Y387848D01*
X1099683Y399552D01*
X1099683Y390242D02*
X1105291Y390242D01*
X1105291Y392636D02*
X1099683Y392636D01*
X1099683Y395030D02*
X1105291Y395030D01*
X1105291Y397424D02*
X1099683Y397424D01*
X1094877Y399552D02*
X1089269Y399552D01*
X1094877Y399552D02*
X1094877Y387848D01*
X1089269Y387848D01*
X1089269Y399552D01*
X1089269Y390242D02*
X1094877Y390242D01*
X1094877Y392636D02*
X1089269Y392636D01*
X1089269Y395030D02*
X1094877Y395030D01*
X1094877Y397424D02*
X1089269Y397424D01*
X1104890Y323352D02*
X1110498Y323352D01*
X1110498Y311648D01*
X1104890Y311648D01*
X1104890Y323352D01*
X1104890Y314042D02*
X1110498Y314042D01*
X1110498Y316436D02*
X1104890Y316436D01*
X1104890Y318830D02*
X1110498Y318830D01*
X1110498Y321224D02*
X1104890Y321224D01*
X1100084Y323352D02*
X1094476Y323352D01*
X1100084Y323352D02*
X1100084Y311648D01*
X1094476Y311648D01*
X1094476Y323352D01*
X1094476Y314042D02*
X1100084Y314042D01*
X1100084Y316436D02*
X1094476Y316436D01*
X1094476Y318830D02*
X1100084Y318830D01*
X1100084Y321224D02*
X1094476Y321224D01*
X1089670Y323352D02*
X1084062Y323352D01*
X1089670Y323352D02*
X1089670Y311648D01*
X1084062Y311648D01*
X1084062Y323352D01*
X1084062Y314042D02*
X1089670Y314042D01*
X1089670Y316436D02*
X1084062Y316436D01*
X1084062Y318830D02*
X1089670Y318830D01*
X1089670Y321224D02*
X1084062Y321224D01*
D15*
X1071880Y12700D03*
X1097280Y12700D03*
X1122680Y12700D03*
X1148080Y12700D03*
X1173480Y12700D03*
X1198880Y12700D03*
X1224280Y12700D03*
D10*
X628650Y1014730D03*
X6350Y519430D03*
D11*
X49050Y643580D03*
X49050Y585780D03*
D12*
X577460Y887140D02*
X577460Y901020D01*
X616340Y901020D01*
X616340Y887140D01*
X577460Y887140D01*
X577460Y889652D02*
X616340Y889652D01*
X616340Y892164D02*
X577460Y892164D01*
X577460Y894676D02*
X616340Y894676D01*
X616340Y897188D02*
X577460Y897188D01*
X577460Y899700D02*
X616340Y899700D01*
X577460Y850220D02*
X577460Y836340D01*
X577460Y850220D02*
X616340Y850220D01*
X616340Y836340D01*
X577460Y836340D01*
X577460Y838852D02*
X616340Y838852D01*
X616340Y841364D02*
X577460Y841364D01*
X577460Y843876D02*
X616340Y843876D01*
X616340Y846388D02*
X577460Y846388D01*
X577460Y848900D02*
X616340Y848900D01*
D13*
X439811Y988832D02*
X434203Y988832D01*
X439811Y988832D02*
X439811Y977128D01*
X434203Y977128D01*
X434203Y988832D01*
X434203Y979522D02*
X439811Y979522D01*
X439811Y981916D02*
X434203Y981916D01*
X434203Y984310D02*
X439811Y984310D01*
X439811Y986704D02*
X434203Y986704D01*
X429397Y988832D02*
X423789Y988832D01*
X429397Y988832D02*
X429397Y977128D01*
X423789Y977128D01*
X423789Y988832D01*
X423789Y979522D02*
X429397Y979522D01*
X429397Y981916D02*
X423789Y981916D01*
X423789Y984310D02*
X429397Y984310D01*
X429397Y986704D02*
X423789Y986704D01*
X434203Y963432D02*
X439811Y963432D01*
X439811Y951728D01*
X434203Y951728D01*
X434203Y963432D01*
X434203Y954122D02*
X439811Y954122D01*
X439811Y956516D02*
X434203Y956516D01*
X434203Y958910D02*
X439811Y958910D01*
X439811Y961304D02*
X434203Y961304D01*
X429397Y963432D02*
X423789Y963432D01*
X429397Y963432D02*
X429397Y951728D01*
X423789Y951728D01*
X423789Y963432D01*
X423789Y954122D02*
X429397Y954122D01*
X429397Y956516D02*
X423789Y956516D01*
X423789Y958910D02*
X429397Y958910D01*
X429397Y961304D02*
X423789Y961304D01*
X434203Y1014232D02*
X439811Y1014232D01*
X439811Y1002528D01*
X434203Y1002528D01*
X434203Y1014232D01*
X434203Y1004922D02*
X439811Y1004922D01*
X439811Y1007316D02*
X434203Y1007316D01*
X434203Y1009710D02*
X439811Y1009710D01*
X439811Y1012104D02*
X434203Y1012104D01*
X429397Y1014232D02*
X423789Y1014232D01*
X429397Y1014232D02*
X429397Y1002528D01*
X423789Y1002528D01*
X423789Y1014232D01*
X423789Y1004922D02*
X429397Y1004922D01*
X429397Y1007316D02*
X423789Y1007316D01*
X423789Y1009710D02*
X429397Y1009710D01*
X429397Y1012104D02*
X423789Y1012104D01*
X513852Y586877D02*
X513852Y581269D01*
X502148Y581269D01*
X502148Y586877D01*
X513852Y586877D01*
X513852Y583663D02*
X502148Y583663D01*
X502148Y586057D02*
X513852Y586057D01*
X513852Y591683D02*
X513852Y597291D01*
X513852Y591683D02*
X502148Y591683D01*
X502148Y597291D01*
X513852Y597291D01*
X513852Y594077D02*
X502148Y594077D01*
X502148Y596471D02*
X513852Y596471D01*
D12*
X577460Y683940D02*
X577460Y697820D01*
X616340Y697820D01*
X616340Y683940D01*
X577460Y683940D01*
X577460Y686452D02*
X616340Y686452D01*
X616340Y688964D02*
X577460Y688964D01*
X577460Y691476D02*
X616340Y691476D01*
X616340Y693988D02*
X577460Y693988D01*
X577460Y696500D02*
X616340Y696500D01*
X577460Y647020D02*
X577460Y633140D01*
X577460Y647020D02*
X616340Y647020D01*
X616340Y633140D01*
X577460Y633140D01*
X577460Y635652D02*
X616340Y635652D01*
X616340Y638164D02*
X577460Y638164D01*
X577460Y640676D02*
X616340Y640676D01*
X616340Y643188D02*
X577460Y643188D01*
X577460Y645700D02*
X616340Y645700D01*
D14*
X609600Y995680D03*
X25400Y995680D03*
X609600Y538480D03*
X25400Y538480D03*
D15*
X381000Y525780D03*
X355600Y525780D03*
D16*
X38100Y838180D03*
X38100Y918180D03*
D13*
X83048Y736737D02*
X83048Y731383D01*
X83048Y736737D02*
X94752Y736737D01*
X94752Y731383D01*
X83048Y731383D01*
X83048Y733777D02*
X94752Y733777D01*
X94752Y736171D02*
X83048Y736171D01*
X83048Y726577D02*
X83048Y721223D01*
X83048Y726577D02*
X94752Y726577D01*
X94752Y721223D01*
X83048Y721223D01*
X83048Y723617D02*
X94752Y723617D01*
X94752Y726011D02*
X83048Y726011D01*
D15*
X88900Y741680D03*
X88900Y716280D03*
D13*
X434203Y938032D02*
X439811Y938032D01*
X439811Y926328D01*
X434203Y926328D01*
X434203Y938032D01*
X434203Y928722D02*
X439811Y928722D01*
X439811Y931116D02*
X434203Y931116D01*
X434203Y933510D02*
X439811Y933510D01*
X439811Y935904D02*
X434203Y935904D01*
X429397Y938032D02*
X423789Y938032D01*
X429397Y938032D02*
X429397Y926328D01*
X423789Y926328D01*
X423789Y938032D01*
X423789Y928722D02*
X429397Y928722D01*
X429397Y931116D02*
X423789Y931116D01*
X423789Y933510D02*
X429397Y933510D01*
X429397Y935904D02*
X423789Y935904D01*
D15*
X152400Y525780D03*
X177800Y525780D03*
X203200Y525780D03*
X228600Y525780D03*
X254000Y525780D03*
X279400Y525780D03*
X304800Y525780D03*
X330200Y525780D03*
X101600Y525780D03*
X127000Y525780D03*
D13*
X434203Y887232D02*
X439811Y887232D01*
X439811Y875528D01*
X434203Y875528D01*
X434203Y887232D01*
X434203Y877922D02*
X439811Y877922D01*
X439811Y880316D02*
X434203Y880316D01*
X434203Y882710D02*
X439811Y882710D01*
X439811Y885104D02*
X434203Y885104D01*
X429397Y887232D02*
X423789Y887232D01*
X429397Y887232D02*
X429397Y875528D01*
X423789Y875528D01*
X423789Y887232D01*
X423789Y877922D02*
X429397Y877922D01*
X429397Y880316D02*
X423789Y880316D01*
X423789Y882710D02*
X429397Y882710D01*
X429397Y885104D02*
X423789Y885104D01*
D15*
X177800Y1008380D03*
X203200Y1008380D03*
X228600Y1008380D03*
X254000Y1008380D03*
X279400Y1008380D03*
X304800Y1008380D03*
X330200Y1008380D03*
X355600Y1008380D03*
X381000Y1008380D03*
X406400Y1008380D03*
D17*
X31009Y627569D02*
X2011Y627569D01*
X31009Y627569D02*
X31009Y619571D01*
X2011Y619571D01*
X2011Y627569D01*
X2011Y621971D02*
X31009Y621971D01*
X31009Y624371D02*
X2011Y624371D01*
X2011Y626771D02*
X31009Y626771D01*
X31009Y645349D02*
X2011Y645349D01*
X31009Y645349D02*
X31009Y637351D01*
X2011Y637351D01*
X2011Y645349D01*
X2011Y639751D02*
X31009Y639751D01*
X31009Y642151D02*
X2011Y642151D01*
X2011Y644551D02*
X31009Y644551D01*
X31009Y609789D02*
X2011Y609789D01*
X31009Y609789D02*
X31009Y601791D01*
X2011Y601791D01*
X2011Y609789D01*
X2011Y604191D02*
X31009Y604191D01*
X31009Y606591D02*
X2011Y606591D01*
X2011Y608991D02*
X31009Y608991D01*
X31009Y592009D02*
X2011Y592009D01*
X31009Y592009D02*
X31009Y584011D01*
X2011Y584011D01*
X2011Y592009D01*
X2011Y586411D02*
X31009Y586411D01*
X31009Y588811D02*
X2011Y588811D01*
X2011Y591211D02*
X31009Y591211D01*
X31009Y759649D02*
X2011Y759649D01*
X31009Y759649D02*
X31009Y751651D01*
X2011Y751651D01*
X2011Y759649D01*
X2011Y754051D02*
X31009Y754051D01*
X31009Y756451D02*
X2011Y756451D01*
X2011Y758851D02*
X31009Y758851D01*
X31009Y777429D02*
X2011Y777429D01*
X31009Y777429D02*
X31009Y769431D01*
X2011Y769431D01*
X2011Y777429D01*
X2011Y771831D02*
X31009Y771831D01*
X31009Y774231D02*
X2011Y774231D01*
X2011Y776631D02*
X31009Y776631D01*
X31009Y741869D02*
X2011Y741869D01*
X31009Y741869D02*
X31009Y733871D01*
X2011Y733871D01*
X2011Y741869D01*
X2011Y736271D02*
X31009Y736271D01*
X31009Y738671D02*
X2011Y738671D01*
X2011Y741071D02*
X31009Y741071D01*
X31009Y724089D02*
X2011Y724089D01*
X31009Y724089D02*
X31009Y716091D01*
X2011Y716091D01*
X2011Y724089D01*
X2011Y718491D02*
X31009Y718491D01*
X31009Y720891D02*
X2011Y720891D01*
X2011Y723291D02*
X31009Y723291D01*
X31009Y706309D02*
X2011Y706309D01*
X31009Y706309D02*
X31009Y698311D01*
X2011Y698311D01*
X2011Y706309D01*
X2011Y700711D02*
X31009Y700711D01*
X31009Y703111D02*
X2011Y703111D01*
X2011Y705511D02*
X31009Y705511D01*
X31009Y688529D02*
X2011Y688529D01*
X31009Y688529D02*
X31009Y680531D01*
X2011Y680531D01*
X2011Y688529D01*
X2011Y682931D02*
X31009Y682931D01*
X31009Y685331D02*
X2011Y685331D01*
X2011Y687731D02*
X31009Y687731D01*
D13*
X434203Y912632D02*
X439811Y912632D01*
X439811Y900928D01*
X434203Y900928D01*
X434203Y912632D01*
X434203Y903322D02*
X439811Y903322D01*
X439811Y905716D02*
X434203Y905716D01*
X434203Y908110D02*
X439811Y908110D01*
X439811Y910504D02*
X434203Y910504D01*
X429397Y912632D02*
X423789Y912632D01*
X429397Y912632D02*
X429397Y900928D01*
X423789Y900928D01*
X423789Y912632D01*
X423789Y903322D02*
X429397Y903322D01*
X429397Y905716D02*
X423789Y905716D01*
X423789Y908110D02*
X429397Y908110D01*
X429397Y910504D02*
X423789Y910504D01*
X439410Y836432D02*
X445018Y836432D01*
X445018Y824728D01*
X439410Y824728D01*
X439410Y836432D01*
X439410Y827122D02*
X445018Y827122D01*
X445018Y829516D02*
X439410Y829516D01*
X439410Y831910D02*
X445018Y831910D01*
X445018Y834304D02*
X439410Y834304D01*
X434604Y836432D02*
X428996Y836432D01*
X434604Y836432D02*
X434604Y824728D01*
X428996Y824728D01*
X428996Y836432D01*
X428996Y827122D02*
X434604Y827122D01*
X434604Y829516D02*
X428996Y829516D01*
X428996Y831910D02*
X434604Y831910D01*
X434604Y834304D02*
X428996Y834304D01*
X424190Y836432D02*
X418582Y836432D01*
X424190Y836432D02*
X424190Y824728D01*
X418582Y824728D01*
X418582Y836432D01*
X418582Y827122D02*
X424190Y827122D01*
X424190Y829516D02*
X418582Y829516D01*
X418582Y831910D02*
X424190Y831910D01*
X424190Y834304D02*
X418582Y834304D01*
D15*
X406400Y525780D03*
X431800Y525780D03*
X457200Y525780D03*
X482600Y525780D03*
X508000Y525780D03*
X533400Y525780D03*
X558800Y525780D03*
D10*
X1294130Y1014730D03*
X671830Y519430D03*
D11*
X714530Y643580D03*
X714530Y585780D03*
D12*
X1242940Y887140D02*
X1242940Y901020D01*
X1281820Y901020D01*
X1281820Y887140D01*
X1242940Y887140D01*
X1242940Y889652D02*
X1281820Y889652D01*
X1281820Y892164D02*
X1242940Y892164D01*
X1242940Y894676D02*
X1281820Y894676D01*
X1281820Y897188D02*
X1242940Y897188D01*
X1242940Y899700D02*
X1281820Y899700D01*
X1242940Y850220D02*
X1242940Y836340D01*
X1242940Y850220D02*
X1281820Y850220D01*
X1281820Y836340D01*
X1242940Y836340D01*
X1242940Y838852D02*
X1281820Y838852D01*
X1281820Y841364D02*
X1242940Y841364D01*
X1242940Y843876D02*
X1281820Y843876D01*
X1281820Y846388D02*
X1242940Y846388D01*
X1242940Y848900D02*
X1281820Y848900D01*
D13*
X1105291Y988832D02*
X1099683Y988832D01*
X1105291Y988832D02*
X1105291Y977128D01*
X1099683Y977128D01*
X1099683Y988832D01*
X1099683Y979522D02*
X1105291Y979522D01*
X1105291Y981916D02*
X1099683Y981916D01*
X1099683Y984310D02*
X1105291Y984310D01*
X1105291Y986704D02*
X1099683Y986704D01*
X1094877Y988832D02*
X1089269Y988832D01*
X1094877Y988832D02*
X1094877Y977128D01*
X1089269Y977128D01*
X1089269Y988832D01*
X1089269Y979522D02*
X1094877Y979522D01*
X1094877Y981916D02*
X1089269Y981916D01*
X1089269Y984310D02*
X1094877Y984310D01*
X1094877Y986704D02*
X1089269Y986704D01*
X1099683Y963432D02*
X1105291Y963432D01*
X1105291Y951728D01*
X1099683Y951728D01*
X1099683Y963432D01*
X1099683Y954122D02*
X1105291Y954122D01*
X1105291Y956516D02*
X1099683Y956516D01*
X1099683Y958910D02*
X1105291Y958910D01*
X1105291Y961304D02*
X1099683Y961304D01*
X1094877Y963432D02*
X1089269Y963432D01*
X1094877Y963432D02*
X1094877Y951728D01*
X1089269Y951728D01*
X1089269Y963432D01*
X1089269Y954122D02*
X1094877Y954122D01*
X1094877Y956516D02*
X1089269Y956516D01*
X1089269Y958910D02*
X1094877Y958910D01*
X1094877Y961304D02*
X1089269Y961304D01*
X1099683Y1014232D02*
X1105291Y1014232D01*
X1105291Y1002528D01*
X1099683Y1002528D01*
X1099683Y1014232D01*
X1099683Y1004922D02*
X1105291Y1004922D01*
X1105291Y1007316D02*
X1099683Y1007316D01*
X1099683Y1009710D02*
X1105291Y1009710D01*
X1105291Y1012104D02*
X1099683Y1012104D01*
X1094877Y1014232D02*
X1089269Y1014232D01*
X1094877Y1014232D02*
X1094877Y1002528D01*
X1089269Y1002528D01*
X1089269Y1014232D01*
X1089269Y1004922D02*
X1094877Y1004922D01*
X1094877Y1007316D02*
X1089269Y1007316D01*
X1089269Y1009710D02*
X1094877Y1009710D01*
X1094877Y1012104D02*
X1089269Y1012104D01*
X1179332Y586877D02*
X1179332Y581269D01*
X1167628Y581269D01*
X1167628Y586877D01*
X1179332Y586877D01*
X1179332Y583663D02*
X1167628Y583663D01*
X1167628Y586057D02*
X1179332Y586057D01*
X1179332Y591683D02*
X1179332Y597291D01*
X1179332Y591683D02*
X1167628Y591683D01*
X1167628Y597291D01*
X1179332Y597291D01*
X1179332Y594077D02*
X1167628Y594077D01*
X1167628Y596471D02*
X1179332Y596471D01*
D12*
X1242940Y683940D02*
X1242940Y697820D01*
X1281820Y697820D01*
X1281820Y683940D01*
X1242940Y683940D01*
X1242940Y686452D02*
X1281820Y686452D01*
X1281820Y688964D02*
X1242940Y688964D01*
X1242940Y691476D02*
X1281820Y691476D01*
X1281820Y693988D02*
X1242940Y693988D01*
X1242940Y696500D02*
X1281820Y696500D01*
X1242940Y647020D02*
X1242940Y633140D01*
X1242940Y647020D02*
X1281820Y647020D01*
X1281820Y633140D01*
X1242940Y633140D01*
X1242940Y635652D02*
X1281820Y635652D01*
X1281820Y638164D02*
X1242940Y638164D01*
X1242940Y640676D02*
X1281820Y640676D01*
X1281820Y643188D02*
X1242940Y643188D01*
X1242940Y645700D02*
X1281820Y645700D01*
D14*
X1275080Y995680D03*
X690880Y995680D03*
X1275080Y538480D03*
X690880Y538480D03*
D15*
X1046480Y525780D03*
X1021080Y525780D03*
D16*
X703580Y838180D03*
X703580Y918180D03*
D13*
X748528Y736737D02*
X748528Y731383D01*
X748528Y736737D02*
X760232Y736737D01*
X760232Y731383D01*
X748528Y731383D01*
X748528Y733777D02*
X760232Y733777D01*
X760232Y736171D02*
X748528Y736171D01*
X748528Y726577D02*
X748528Y721223D01*
X748528Y726577D02*
X760232Y726577D01*
X760232Y721223D01*
X748528Y721223D01*
X748528Y723617D02*
X760232Y723617D01*
X760232Y726011D02*
X748528Y726011D01*
D15*
X754380Y741680D03*
X754380Y716280D03*
D13*
X1099683Y938032D02*
X1105291Y938032D01*
X1105291Y926328D01*
X1099683Y926328D01*
X1099683Y938032D01*
X1099683Y928722D02*
X1105291Y928722D01*
X1105291Y931116D02*
X1099683Y931116D01*
X1099683Y933510D02*
X1105291Y933510D01*
X1105291Y935904D02*
X1099683Y935904D01*
X1094877Y938032D02*
X1089269Y938032D01*
X1094877Y938032D02*
X1094877Y926328D01*
X1089269Y926328D01*
X1089269Y938032D01*
X1089269Y928722D02*
X1094877Y928722D01*
X1094877Y931116D02*
X1089269Y931116D01*
X1089269Y933510D02*
X1094877Y933510D01*
X1094877Y935904D02*
X1089269Y935904D01*
D15*
X817880Y525780D03*
X843280Y525780D03*
X868680Y525780D03*
X894080Y525780D03*
X919480Y525780D03*
X944880Y525780D03*
X970280Y525780D03*
X995680Y525780D03*
X767080Y525780D03*
X792480Y525780D03*
D13*
X1099683Y887232D02*
X1105291Y887232D01*
X1105291Y875528D01*
X1099683Y875528D01*
X1099683Y887232D01*
X1099683Y877922D02*
X1105291Y877922D01*
X1105291Y880316D02*
X1099683Y880316D01*
X1099683Y882710D02*
X1105291Y882710D01*
X1105291Y885104D02*
X1099683Y885104D01*
X1094877Y887232D02*
X1089269Y887232D01*
X1094877Y887232D02*
X1094877Y875528D01*
X1089269Y875528D01*
X1089269Y887232D01*
X1089269Y877922D02*
X1094877Y877922D01*
X1094877Y880316D02*
X1089269Y880316D01*
X1089269Y882710D02*
X1094877Y882710D01*
X1094877Y885104D02*
X1089269Y885104D01*
D15*
X843280Y1008380D03*
X868680Y1008380D03*
X894080Y1008380D03*
X919480Y1008380D03*
X944880Y1008380D03*
X970280Y1008380D03*
X995680Y1008380D03*
X1021080Y1008380D03*
X1046480Y1008380D03*
X1071880Y1008380D03*
D17*
X696489Y627569D02*
X667491Y627569D01*
X696489Y627569D02*
X696489Y619571D01*
X667491Y619571D01*
X667491Y627569D01*
X667491Y621971D02*
X696489Y621971D01*
X696489Y624371D02*
X667491Y624371D01*
X667491Y626771D02*
X696489Y626771D01*
X696489Y645349D02*
X667491Y645349D01*
X696489Y645349D02*
X696489Y637351D01*
X667491Y637351D01*
X667491Y645349D01*
X667491Y639751D02*
X696489Y639751D01*
X696489Y642151D02*
X667491Y642151D01*
X667491Y644551D02*
X696489Y644551D01*
X696489Y609789D02*
X667491Y609789D01*
X696489Y609789D02*
X696489Y601791D01*
X667491Y601791D01*
X667491Y609789D01*
X667491Y604191D02*
X696489Y604191D01*
X696489Y606591D02*
X667491Y606591D01*
X667491Y608991D02*
X696489Y608991D01*
X696489Y592009D02*
X667491Y592009D01*
X696489Y592009D02*
X696489Y584011D01*
X667491Y584011D01*
X667491Y592009D01*
X667491Y586411D02*
X696489Y586411D01*
X696489Y588811D02*
X667491Y588811D01*
X667491Y591211D02*
X696489Y591211D01*
X696489Y759649D02*
X667491Y759649D01*
X696489Y759649D02*
X696489Y751651D01*
X667491Y751651D01*
X667491Y759649D01*
X667491Y754051D02*
X696489Y754051D01*
X696489Y756451D02*
X667491Y756451D01*
X667491Y758851D02*
X696489Y758851D01*
X696489Y777429D02*
X667491Y777429D01*
X696489Y777429D02*
X696489Y769431D01*
X667491Y769431D01*
X667491Y777429D01*
X667491Y771831D02*
X696489Y771831D01*
X696489Y774231D02*
X667491Y774231D01*
X667491Y776631D02*
X696489Y776631D01*
X696489Y741869D02*
X667491Y741869D01*
X696489Y741869D02*
X696489Y733871D01*
X667491Y733871D01*
X667491Y741869D01*
X667491Y736271D02*
X696489Y736271D01*
X696489Y738671D02*
X667491Y738671D01*
X667491Y741071D02*
X696489Y741071D01*
X696489Y724089D02*
X667491Y724089D01*
X696489Y724089D02*
X696489Y716091D01*
X667491Y716091D01*
X667491Y724089D01*
X667491Y718491D02*
X696489Y718491D01*
X696489Y720891D02*
X667491Y720891D01*
X667491Y723291D02*
X696489Y723291D01*
X696489Y706309D02*
X667491Y706309D01*
X696489Y706309D02*
X696489Y698311D01*
X667491Y698311D01*
X667491Y706309D01*
X667491Y700711D02*
X696489Y700711D01*
X696489Y703111D02*
X667491Y703111D01*
X667491Y705511D02*
X696489Y705511D01*
X696489Y688529D02*
X667491Y688529D01*
X696489Y688529D02*
X696489Y680531D01*
X667491Y680531D01*
X667491Y688529D01*
X667491Y682931D02*
X696489Y682931D01*
X696489Y685331D02*
X667491Y685331D01*
X667491Y687731D02*
X696489Y687731D01*
D13*
X1099683Y912632D02*
X1105291Y912632D01*
X1105291Y900928D01*
X1099683Y900928D01*
X1099683Y912632D01*
X1099683Y903322D02*
X1105291Y903322D01*
X1105291Y905716D02*
X1099683Y905716D01*
X1099683Y908110D02*
X1105291Y908110D01*
X1105291Y910504D02*
X1099683Y910504D01*
X1094877Y912632D02*
X1089269Y912632D01*
X1094877Y912632D02*
X1094877Y900928D01*
X1089269Y900928D01*
X1089269Y912632D01*
X1089269Y903322D02*
X1094877Y903322D01*
X1094877Y905716D02*
X1089269Y905716D01*
X1089269Y908110D02*
X1094877Y908110D01*
X1094877Y910504D02*
X1089269Y910504D01*
X1104890Y836432D02*
X1110498Y836432D01*
X1110498Y824728D01*
X1104890Y824728D01*
X1104890Y836432D01*
X1104890Y827122D02*
X1110498Y827122D01*
X1110498Y829516D02*
X1104890Y829516D01*
X1104890Y831910D02*
X1110498Y831910D01*
X1110498Y834304D02*
X1104890Y834304D01*
X1100084Y836432D02*
X1094476Y836432D01*
X1100084Y836432D02*
X1100084Y824728D01*
X1094476Y824728D01*
X1094476Y836432D01*
X1094476Y827122D02*
X1100084Y827122D01*
X1100084Y829516D02*
X1094476Y829516D01*
X1094476Y831910D02*
X1100084Y831910D01*
X1100084Y834304D02*
X1094476Y834304D01*
X1089670Y836432D02*
X1084062Y836432D01*
X1089670Y836432D02*
X1089670Y824728D01*
X1084062Y824728D01*
X1084062Y836432D01*
X1084062Y827122D02*
X1089670Y827122D01*
X1089670Y829516D02*
X1084062Y829516D01*
X1084062Y831910D02*
X1089670Y831910D01*
X1089670Y834304D02*
X1084062Y834304D01*
D15*
X1071880Y525780D03*
X1097280Y525780D03*
X1122680Y525780D03*
X1148080Y525780D03*
X1173480Y525780D03*
X1198880Y525780D03*
X1224280Y525780D03*
D16*
X-51638Y994410D03*
X1352118Y994410D03*
D18*
X-60693Y63500D02*
X-60690Y63722D01*
X-60682Y63944D01*
X-60668Y64166D01*
X-60649Y64388D01*
X-60625Y64608D01*
X-60595Y64829D01*
X-60560Y65048D01*
X-60519Y65267D01*
X-60473Y65484D01*
X-60422Y65700D01*
X-60365Y65915D01*
X-60303Y66129D01*
X-60236Y66340D01*
X-60164Y66551D01*
X-60086Y66759D01*
X-60004Y66965D01*
X-59916Y67169D01*
X-59824Y67372D01*
X-59726Y67571D01*
X-59624Y67768D01*
X-59517Y67963D01*
X-59405Y68155D01*
X-59288Y68344D01*
X-59167Y68531D01*
X-59041Y68714D01*
X-58911Y68894D01*
X-58776Y69071D01*
X-58638Y69244D01*
X-58495Y69414D01*
X-58347Y69581D01*
X-58196Y69744D01*
X-58041Y69903D01*
X-57882Y70058D01*
X-57719Y70209D01*
X-57552Y70357D01*
X-57382Y70500D01*
X-57209Y70638D01*
X-57032Y70773D01*
X-56852Y70903D01*
X-56669Y71029D01*
X-56482Y71150D01*
X-56293Y71267D01*
X-56101Y71379D01*
X-55906Y71486D01*
X-55709Y71588D01*
X-55510Y71686D01*
X-55307Y71778D01*
X-55103Y71866D01*
X-54897Y71948D01*
X-54689Y72026D01*
X-54478Y72098D01*
X-54267Y72165D01*
X-54053Y72227D01*
X-53838Y72284D01*
X-53622Y72335D01*
X-53405Y72381D01*
X-53186Y72422D01*
X-52967Y72457D01*
X-52746Y72487D01*
X-52526Y72511D01*
X-52304Y72530D01*
X-52082Y72544D01*
X-51860Y72552D01*
X-51638Y72555D01*
X-51416Y72552D01*
X-51194Y72544D01*
X-50972Y72530D01*
X-50750Y72511D01*
X-50530Y72487D01*
X-50309Y72457D01*
X-50090Y72422D01*
X-49871Y72381D01*
X-49654Y72335D01*
X-49438Y72284D01*
X-49223Y72227D01*
X-49009Y72165D01*
X-48798Y72098D01*
X-48587Y72026D01*
X-48379Y71948D01*
X-48173Y71866D01*
X-47969Y71778D01*
X-47766Y71686D01*
X-47567Y71588D01*
X-47370Y71486D01*
X-47175Y71379D01*
X-46983Y71267D01*
X-46794Y71150D01*
X-46607Y71029D01*
X-46424Y70903D01*
X-46244Y70773D01*
X-46067Y70638D01*
X-45894Y70500D01*
X-45724Y70357D01*
X-45557Y70209D01*
X-45394Y70058D01*
X-45235Y69903D01*
X-45080Y69744D01*
X-44929Y69581D01*
X-44781Y69414D01*
X-44638Y69244D01*
X-44500Y69071D01*
X-44365Y68894D01*
X-44235Y68714D01*
X-44109Y68531D01*
X-43988Y68344D01*
X-43871Y68155D01*
X-43759Y67963D01*
X-43652Y67768D01*
X-43550Y67571D01*
X-43452Y67372D01*
X-43360Y67169D01*
X-43272Y66965D01*
X-43190Y66759D01*
X-43112Y66551D01*
X-43040Y66340D01*
X-42973Y66129D01*
X-42911Y65915D01*
X-42854Y65700D01*
X-42803Y65484D01*
X-42757Y65267D01*
X-42716Y65048D01*
X-42681Y64829D01*
X-42651Y64608D01*
X-42627Y64388D01*
X-42608Y64166D01*
X-42594Y63944D01*
X-42586Y63722D01*
X-42583Y63500D01*
X-42586Y63278D01*
X-42594Y63056D01*
X-42608Y62834D01*
X-42627Y62612D01*
X-42651Y62392D01*
X-42681Y62171D01*
X-42716Y61952D01*
X-42757Y61733D01*
X-42803Y61516D01*
X-42854Y61300D01*
X-42911Y61085D01*
X-42973Y60871D01*
X-43040Y60660D01*
X-43112Y60449D01*
X-43190Y60241D01*
X-43272Y60035D01*
X-43360Y59831D01*
X-43452Y59628D01*
X-43550Y59429D01*
X-43652Y59232D01*
X-43759Y59037D01*
X-43871Y58845D01*
X-43988Y58656D01*
X-44109Y58469D01*
X-44235Y58286D01*
X-44365Y58106D01*
X-44500Y57929D01*
X-44638Y57756D01*
X-44781Y57586D01*
X-44929Y57419D01*
X-45080Y57256D01*
X-45235Y57097D01*
X-45394Y56942D01*
X-45557Y56791D01*
X-45724Y56643D01*
X-45894Y56500D01*
X-46067Y56362D01*
X-46244Y56227D01*
X-46424Y56097D01*
X-46607Y55971D01*
X-46794Y55850D01*
X-46983Y55733D01*
X-47175Y55621D01*
X-47370Y55514D01*
X-47567Y55412D01*
X-47766Y55314D01*
X-47969Y55222D01*
X-48173Y55134D01*
X-48379Y55052D01*
X-48587Y54974D01*
X-48798Y54902D01*
X-49009Y54835D01*
X-49223Y54773D01*
X-49438Y54716D01*
X-49654Y54665D01*
X-49871Y54619D01*
X-50090Y54578D01*
X-50309Y54543D01*
X-50530Y54513D01*
X-50750Y54489D01*
X-50972Y54470D01*
X-51194Y54456D01*
X-51416Y54448D01*
X-51638Y54445D01*
X-51860Y54448D01*
X-52082Y54456D01*
X-52304Y54470D01*
X-52526Y54489D01*
X-52746Y54513D01*
X-52967Y54543D01*
X-53186Y54578D01*
X-53405Y54619D01*
X-53622Y54665D01*
X-53838Y54716D01*
X-54053Y54773D01*
X-54267Y54835D01*
X-54478Y54902D01*
X-54689Y54974D01*
X-54897Y55052D01*
X-55103Y55134D01*
X-55307Y55222D01*
X-55510Y55314D01*
X-55709Y55412D01*
X-55906Y55514D01*
X-56101Y55621D01*
X-56293Y55733D01*
X-56482Y55850D01*
X-56669Y55971D01*
X-56852Y56097D01*
X-57032Y56227D01*
X-57209Y56362D01*
X-57382Y56500D01*
X-57552Y56643D01*
X-57719Y56791D01*
X-57882Y56942D01*
X-58041Y57097D01*
X-58196Y57256D01*
X-58347Y57419D01*
X-58495Y57586D01*
X-58638Y57756D01*
X-58776Y57929D01*
X-58911Y58106D01*
X-59041Y58286D01*
X-59167Y58469D01*
X-59288Y58656D01*
X-59405Y58845D01*
X-59517Y59037D01*
X-59624Y59232D01*
X-59726Y59429D01*
X-59824Y59628D01*
X-59916Y59831D01*
X-60004Y60035D01*
X-60086Y60241D01*
X-60164Y60449D01*
X-60236Y60660D01*
X-60303Y60871D01*
X-60365Y61085D01*
X-60422Y61300D01*
X-60473Y61516D01*
X-60519Y61733D01*
X-60560Y61952D01*
X-60595Y62171D01*
X-60625Y62392D01*
X-60649Y62612D01*
X-60668Y62834D01*
X-60682Y63056D01*
X-60690Y63278D01*
X-60693Y63500D01*
D19*
X-51638Y63500D03*
M02*
