M48
;GenerationSoftware,Autodesk,EAGLE,9.6.2*%
;CreationDate,2023-07-26T22:16:23Z*%
FMAT,2
ICI,OFF
METRIC,TZ,000.000
T6C0.305
T5C0.400
T4C0.650
T3C1.000
T2C1.016
T1C3.302
%
G90
M71
T1
X2540Y99568
X2540Y53848
X127508Y99568
X69088Y99568
X60960Y48260
X2540Y48260
X60960Y2540
X2540Y2540
X127508Y53848
X60960Y99568
X69088Y53848
X60960Y53848
X127508Y48260
X69088Y48260
X127508Y2540
X69088Y2540
T2
X122428Y52578
X86868Y52578
X89408Y52578
X91948Y52578
X94488Y52578
X97028Y52578
X99568Y52578
X76708Y52578
X79248Y52578
X84328Y100838
X86868Y100838
X17780Y1270
X89408Y100838
X91948Y100838
X94488Y100838
X97028Y100838
X99568Y100838
X102108Y100838
X104648Y100838
X107188Y100838
X107188Y52578
X38100Y1270
X35560Y1270
X8890Y22860
X8890Y20320
X15240Y1270
X109728Y52578
X20320Y1270
X22860Y1270
X25400Y1270
X27940Y1270
X30480Y1270
X33020Y1270
X10160Y1270
X12700Y1270
X17780Y49530
X20320Y49530
X22860Y49530
X25400Y49530
X27940Y49530
X30480Y49530
X33020Y49530
X35560Y49530
X38100Y49530
X40640Y49530
X40640Y1270
X43180Y1270
X45720Y1270
X48260Y1270
X50800Y1270
X53340Y1270
X55880Y1270
X112268Y52578
X114808Y52578
X117348Y52578
X119888Y52578
X104648Y1270
X102108Y1270
X75438Y22860
X75438Y20320
X81788Y1270
X84328Y1270
X86868Y1270
X89408Y1270
X91948Y1270
X94488Y1270
X97028Y1270
X99568Y1270
X76708Y1270
X79248Y1270
X84328Y49530
X86868Y49530
X89408Y49530
X91948Y49530
X94488Y49530
X97028Y49530
X99568Y49530
X102108Y49530
X104648Y49530
X107188Y49530
X107188Y1270
X109728Y1270
X112268Y1270
X114808Y1270
X117348Y1270
X119888Y1270
X122428Y1270
X38100Y52578
X35560Y52578
X8890Y74168
X8890Y71628
X15240Y52578
X17780Y52578
X20320Y52578
X22860Y52578
X25400Y52578
X27940Y52578
X30480Y52578
X33020Y52578
X10160Y52578
X12700Y52578
X17780Y100838
X20320Y100838
X22860Y100838
X25400Y100838
X27940Y100838
X30480Y100838
X33020Y100838
X35560Y100838
X38100Y100838
X40640Y100838
X40640Y52578
X43180Y52578
X45720Y52578
X48260Y52578
X50800Y52578
X53340Y52578
X55880Y52578
X104648Y52578
X102108Y52578
X75438Y74168
X75438Y71628
X81788Y52578
X84328Y52578
T3
X3810Y32510
X3810Y40510
X70358Y32510
X70358Y40510
X3810Y83818
X3810Y91818
X70358Y83818
X70358Y91818
T4
X4905Y13050
X4905Y7270
X71453Y13050
X71453Y7270
X4905Y64358
X4905Y58578
X71453Y64358
X71453Y58578
T5
X1255Y5842
X5435Y5842
X5435Y14478
X1255Y14478
X67803Y14478
X67803Y5842
X71983Y5842
X71983Y14478
X71983Y57150
X71983Y65786
X5435Y65786
X1255Y65786
X1255Y57150
X5435Y57150
X67803Y65786
X67803Y57150
T6
X15240Y13716
X21590Y24130
X21590Y44450
X20320Y19050
X42037Y28575
X20358Y28575
X44577Y47625
X44450Y45720
X44577Y49530
X27940Y19812
X38735Y31750
X27940Y31750
X7620Y17780
X21590Y20320
X7388Y12932
X7493Y10160
X55245Y21217
X50800Y10160
X22860Y44831
X21552Y25400
X56134Y23368
X46990Y21590
X43180Y17018
X15748Y34544
X19688Y40386
X15240Y44450
X19724Y42203
X46990Y19050
X44450Y17780
X37719Y21590
X39497Y40640
X39497Y43180
X7620Y27940
X11430Y24130
X36830Y27305
X12700Y37719
X17783Y39457
X15748Y39878
X17780Y36830
X45085Y43561
X41783Y46990
X48895Y48514
X31750Y5080
X34290Y10160
X1651Y23437
X36830Y8890
X1651Y21659
X6309Y16342
X35560Y9525
X1651Y19881
X38100Y8255
X1651Y18103
X38989Y20320
X39624Y18923
X20320Y6350
X26670Y45085
X26708Y31115
X19558Y29210
X12700Y34290
X45720Y15240
X38100Y15240
X45085Y41021
X42545Y35573
X85598Y11430
X88519Y33020
X113538Y23495
X110757Y33020
X120650Y24765
X124206Y19507
X71628Y45720
X86233Y34798
X86233Y31242
X82550Y26670
X82550Y24765
X80518Y19050
X79248Y19050
X78486Y17018
X71120Y16256
X78740Y13970
X81026Y15748
X79629Y11557
X73533Y14097
X73660Y6858
X78740Y6350
X126238Y19050
X124968Y19050
X123698Y17780
X126238Y11430
X124968Y11430
X127508Y11430
X127508Y13970
X126238Y13970
X124968Y13970
X124968Y16510
X126238Y16510
X127508Y16510
X127508Y19050
X127508Y31750
X126238Y31750
X124968Y31750
X123698Y33020
X124968Y34163
X126238Y34163
X127508Y34163
X127508Y36957
X126238Y36957
X124968Y36957
X123698Y38100
X124968Y39370
X126238Y39370
X127508Y39370
X123698Y31750
X119507Y48514
X119507Y46736
X119507Y44450
X69088Y27940
X106553Y13335
X106553Y15240
X107950Y15240
X106553Y10287
X106553Y12065
X116078Y10160
X114173Y10160
X116713Y15875
X116713Y17145
X115443Y17145
X115443Y15875
X116713Y14605
X116713Y13335
X115443Y20955
X115443Y19685
X115443Y18415
X113538Y35560
X113538Y34290
X113538Y33020
X113538Y31750
X113538Y30480
X113538Y29210
X113538Y27940
X113538Y26670
X118618Y26670
X118618Y27940
X118618Y29210
X118618Y33020
X118618Y31750
X118618Y30480
X118618Y34290
X118618Y36830
X118618Y38100
X118618Y39370
X117348Y40640
X116078Y40640
X113538Y40640
X112268Y35560
X104013Y37465
X104013Y38608
X100838Y40640
X102108Y40640
X99060Y40640
X98298Y35560
X97028Y35560
X95758Y35560
X92583Y37465
X96393Y38735
X97663Y38735
X95123Y38735
X93853Y38735
X93853Y37465
X95123Y37465
X96393Y37465
X97663Y37465
X99568Y35560
X100838Y35560
X102108Y35560
X91313Y36195
X90043Y36195
X90043Y37465
X90043Y38735
X88646Y38735
X88646Y37465
X88646Y36195
X92583Y38735
X92583Y40005
X93853Y40005
X95123Y40005
X96393Y40005
X97663Y40005
X119761Y18415
X119380Y16383
X121666Y14351
X91313Y17145
X90043Y17145
X90043Y18415
X91313Y18415
X90043Y15875
X91313Y15875
X90043Y14605
X93853Y13335
X95123Y13335
X97663Y13335
X101473Y13335
X85217Y39116
X82296Y38227
X90043Y31115
X90043Y29845
X91313Y29845
X91313Y32258
X90043Y32258
X90043Y26035
X86233Y41275
X79629Y8128
X106553Y37465
X107823Y37465
X112903Y37465
X112903Y38735
X114173Y38735
X114173Y37465
X115443Y37465
X116713Y37465
X115443Y36195
X115443Y34925
X115443Y33655
X116713Y33655
X115443Y32385
X115443Y31115
X115443Y29845
X115443Y28575
X115443Y27305
X115443Y38735
X116713Y38735
X107823Y38735
X111633Y38735
X73975Y9210
X74029Y11037
X81788Y11646
X81788Y13716
X88138Y24130
X88138Y44450
X86868Y19050
X108585Y28575
X86906Y28575
X111125Y47625
X110998Y45720
X111125Y49530
X94488Y19812
X105283Y31750
X94488Y31750
X74168Y17780
X88138Y20320
X73936Y12932
X74041Y10160
X121793Y21217
X117348Y10160
X89408Y44831
X88100Y25400
X122682Y23368
X113538Y21590
X109728Y17018
X82296Y34544
X86236Y40386
X81788Y44450
X86272Y42203
X113538Y19050
X110998Y17780
X104267Y21590
X106045Y40640
X106045Y43180
X74168Y27940
X77978Y24130
X103378Y27305
X79248Y37719
X84331Y39457
X82296Y39878
X84328Y36830
X111633Y43561
X108331Y46990
X115443Y48514
X98298Y5080
X100838Y10160
X68199Y23437
X103378Y8890
X68199Y21659
X72857Y16342
X102108Y9525
X68199Y19881
X104648Y8255
X68199Y18103
X105537Y20320
X106172Y18923
X86868Y6350
X93218Y45085
X93256Y31115
X86106Y29210
X79248Y34290
X112268Y15240
X104648Y15240
X111633Y41021
X109093Y35573
X19050Y62738
X21971Y84328
X46990Y74803
X44209Y84328
X54102Y76073
X57658Y70815
X5080Y97028
X19685Y86106
X19685Y82550
X16002Y77978
X16002Y76073
X13970Y70358
X12700Y70358
X11938Y68326
X4572Y67564
X12192Y65278
X14478Y67056
X13081Y62865
X6985Y65405
X7112Y58166
X12192Y57658
X59690Y70358
X58420Y70358
X57150Y69088
X59690Y62738
X58420Y62738
X60960Y62738
X60960Y65278
X59690Y65278
X58420Y65278
X58420Y67818
X59690Y67818
X60960Y67818
X60960Y70358
X60960Y83058
X59690Y83058
X58420Y83058
X57150Y84328
X58420Y85471
X59690Y85471
X60960Y85471
X60960Y88265
X59690Y88265
X58420Y88265
X57150Y89408
X58420Y90678
X59690Y90678
X60960Y90678
X57150Y83058
X52959Y99822
X52959Y98044
X52959Y95758
X2540Y79248
X40005Y64643
X40005Y66548
X41402Y66548
X40005Y61595
X40005Y63373
X49530Y61468
X47625Y61468
X50165Y67183
X50165Y68453
X48895Y68453
X48895Y67183
X50165Y65913
X50165Y64643
X48895Y72263
X48895Y70993
X48895Y69723
X46990Y86868
X46990Y85598
X46990Y84328
X46990Y83058
X46990Y81788
X46990Y80518
X46990Y79248
X46990Y77978
X52070Y77978
X52070Y79248
X52070Y80518
X52070Y84328
X52070Y83058
X52070Y81788
X52070Y85598
X52070Y88138
X52070Y89408
X15748Y38227
X50800Y91948
X49530Y91948
X46990Y91948
X45720Y86868
X37465Y88773
X37465Y89916
X34290Y91948
X35560Y91948
X32512Y91948
X31750Y86868
X30480Y86868
X29210Y86868
X26035Y88773
X29845Y90043
X31115Y90043
X28575Y90043
X27305Y90043
X27305Y88773
X28575Y88773
X29845Y88773
X31115Y88773
X33020Y86868
X34290Y86868
X35560Y86868
X24765Y87503
X23495Y87503
X23495Y88773
X23495Y90043
X22098Y90043
X22098Y88773
X22098Y87503
X26035Y90043
X26035Y91313
X27305Y91313
X28575Y91313
X29845Y91313
X31115Y91313
X53213Y69723
X52832Y67691
X55118Y65659
X24765Y68453
X23495Y68453
X23495Y69723
X24765Y69723
X23495Y67183
X24765Y67183
X23495Y65913
X27305Y64643
X28575Y64643
X31115Y64643
X34925Y64643
X18669Y90424
X15748Y89535
X23495Y82423
X23495Y81153
X24765Y81153
X24765Y83566
X23495Y83566
X23495Y77343
X19685Y92583
X13081Y59436
X40005Y88773
X41275Y88773
X46355Y88773
X46355Y90043
X47625Y90043
X47625Y88773
X48895Y88773
X50165Y88773
X48895Y87503
X48895Y86233
X48895Y84963
X50165Y84963
X48895Y83693
X48895Y82423
X48895Y81153
X48895Y79883
X48895Y78613
X48895Y90043
X50165Y90043
X41275Y90043
X45085Y90043
X7427Y60518
X7481Y62345
X15240Y62954
X15240Y65024
X21590Y75438
X21590Y95758
X20320Y70358
X42037Y79883
X20358Y79883
X44577Y98933
X44450Y97028
X44577Y100838
X27940Y71120
X38735Y83058
X27940Y83058
X7620Y69088
X21590Y71628
X7388Y64240
X7493Y61468
X55245Y72525
X50800Y61468
X22860Y96139
X21552Y76708
X56134Y74676
X46990Y72898
X43180Y68326
X15748Y85852
X19688Y91694
X15240Y95758
X19724Y93511
X46990Y70358
X44450Y69088
X37719Y72898
X39497Y91948
X39497Y94488
X7620Y79248
X11430Y75438
X36830Y78613
X12700Y89027
X17783Y90765
X15748Y91186
X17780Y88138
X45085Y94869
X41783Y98298
X48895Y99822
X31750Y56388
X34290Y61468
X1651Y74745
X36830Y60198
X1651Y72967
X6309Y67650
X35560Y60833
X1651Y71189
X38100Y59563
X1651Y69411
X38989Y71628
X39624Y70231
X20320Y57658
X26670Y96393
X26708Y82423
X19558Y80518
X12700Y85598
X45720Y66548
X38100Y66548
X45085Y92329
X42545Y86881
X85598Y62738
X88519Y84328
X113538Y74803
X110757Y84328
X120650Y76073
X124206Y70815
X71628Y97028
X86233Y86106
X86233Y82550
X82550Y77978
X82550Y76073
X80518Y70358
X79248Y70358
X78486Y68326
X71120Y67564
X78740Y65278
X81026Y67056
X79629Y62865
X73533Y65405
X73660Y58166
X78740Y57658
X126238Y70358
X124968Y70358
X123698Y69088
X126238Y62738
X124968Y62738
X127508Y62738
X127508Y65278
X126238Y65278
X124968Y65278
X124968Y67818
X126238Y67818
X127508Y67818
X127508Y70358
X127508Y83058
X126238Y83058
X124968Y83058
X123698Y84328
X124968Y85471
X126238Y85471
X127508Y85471
X127508Y88265
X126238Y88265
X124968Y88265
X123698Y89408
X124968Y90678
X126238Y90678
X127508Y90678
X123698Y83058
X119507Y99822
X119507Y98044
X119507Y95758
X69088Y79248
X106553Y64643
X106553Y66548
X107950Y66548
X106553Y61595
X106553Y63373
X116078Y61468
X114173Y61468
X116713Y67183
X116713Y68453
X115443Y68453
X115443Y67183
X116713Y65913
X116713Y64643
X115443Y72263
X115443Y70993
X115443Y69723
X113538Y86868
X113538Y85598
X113538Y84328
X113538Y83058
X113538Y81788
X113538Y80518
X113538Y79248
X113538Y77978
X118618Y77978
X118618Y79248
X118618Y80518
X118618Y84328
X118618Y83058
X118618Y81788
X118618Y85598
X118618Y88138
X118618Y89408
X118618Y90678
X117348Y91948
X116078Y91948
X113538Y91948
X112268Y86868
X104013Y88773
X104013Y89916
X100838Y91948
X102108Y91948
X99060Y91948
X98298Y86868
X97028Y86868
X95758Y86868
X92583Y88773
X96393Y90043
X97663Y90043
X95123Y90043
X93853Y90043
X93853Y88773
X95123Y88773
X96393Y88773
X97663Y88773
X99568Y86868
X100838Y86868
X102108Y86868
X91313Y87503
X90043Y87503
X90043Y88773
X90043Y90043
X88646Y90043
X88646Y88773
X88646Y87503
X92583Y90043
X92583Y91313
X93853Y91313
X95123Y91313
X96393Y91313
X97663Y91313
X119761Y69723
X119380Y67691
X121666Y65659
X91313Y68453
X19050Y11430
X90043Y69723
X91313Y69723
X90043Y67183
X91313Y67183
X90043Y65913
X93853Y64643
X95123Y64643
X97663Y64643
X101473Y64643
X85217Y90424
X82296Y89535
X90043Y82423
X90043Y81153
X91313Y81153
X91313Y83566
X90043Y83566
X90043Y77343
X86233Y92583
X79629Y59436
X106553Y88773
X107823Y88773
X112903Y88773
X112903Y90043
X114173Y90043
X114173Y88773
X115443Y88773
X116713Y88773
X115443Y87503
X115443Y86233
X115443Y84963
X116713Y84963
X115443Y83693
X115443Y82423
X115443Y81153
X115443Y79883
X115443Y78613
X115443Y90043
X116713Y90043
X107823Y90043
X111633Y90043
X73975Y60518
X74029Y62345
X81788Y62954
X81788Y65024
X88138Y75438
X88138Y95758
X86868Y70358
X108585Y79883
X86906Y79883
X111125Y98933
X110998Y97028
X111125Y100838
X94488Y71120
X105283Y83058
X94488Y83058
X74168Y69088
X88138Y71628
X73936Y64240
X74041Y61468
X121793Y72525
X117348Y61468
X89408Y96139
X88100Y76708
X122682Y74676
X113538Y72898
X109728Y68326
X82296Y85852
X86236Y91694
X81788Y95758
X86272Y93511
X113538Y70358
X110998Y69088
X104267Y72898
X106045Y91948
X106045Y94488
X74168Y79248
X77978Y75438
X103378Y78613
X79248Y89027
X84331Y90765
X82296Y91186
X84328Y88138
X111633Y94869
X108331Y98298
X115443Y99822
X98298Y56388
X100838Y61468
X68199Y74745
X103378Y60198
X68199Y72967
X72857Y67650
X102108Y60833
X68199Y71189
X104648Y59563
X68199Y69411
X105537Y71628
X106172Y70231
X86868Y57658
X93218Y96393
X93256Y82423
X86106Y80518
X79248Y85598
X112268Y66548
X104648Y66548
X111633Y92329
X109093Y86881
X21971Y33020
X46990Y23495
X44209Y33020
X54102Y24765
X57658Y19507
X5080Y45720
X19685Y34798
X19685Y31242
X16002Y26670
X16002Y24765
X13970Y19050
X12700Y19050
X11938Y17018
X4572Y16256
X12192Y13970
X14478Y15748
X13081Y11557
X6985Y14097
X7112Y6858
X12192Y6350
X59690Y19050
X58420Y19050
X57150Y17780
X59690Y11430
X58420Y11430
X60960Y11430
X60960Y13970
X59690Y13970
X58420Y13970
X58420Y16510
X59690Y16510
X60960Y16510
X52070Y90678
X60960Y19050
X60960Y31750
X59690Y31750
X58420Y31750
X57150Y33020
X58420Y34163
X59690Y34163
X60960Y34163
X60960Y36957
X59690Y36957
X58420Y36957
X57150Y38100
X58420Y39370
X59690Y39370
X60960Y39370
X57150Y31750
X52959Y48514
X52959Y46736
X52959Y44450
X2540Y27940
X40005Y13335
X40005Y15240
X41402Y15240
X40005Y10287
X40005Y12065
X49530Y10160
X47625Y10160
X50165Y15875
X50165Y17145
X48895Y17145
X48895Y15875
X50165Y14605
X50165Y13335
X48895Y20955
X48895Y19685
X48895Y18415
X46990Y35560
X46990Y34290
X46990Y33020
X46990Y31750
X46990Y30480
X46990Y29210
X46990Y27940
X46990Y26670
X52070Y26670
X52070Y27940
X52070Y29210
X52070Y33020
X52070Y31750
X52070Y30480
X52070Y34290
X52070Y36830
X52070Y38100
X52070Y39370
X50800Y40640
X49530Y40640
X46990Y40640
X45720Y35560
X37465Y37465
X37465Y38608
X34290Y40640
X35560Y40640
X32512Y40640
X31750Y35560
X30480Y35560
X29210Y35560
X26035Y37465
X29845Y38735
X31115Y38735
X28575Y38735
X27305Y38735
X27305Y37465
X28575Y37465
X29845Y37465
X31115Y37465
X33020Y35560
X34290Y35560
X35560Y35560
X24765Y36195
X23495Y36195
X23495Y37465
X23495Y38735
X22098Y38735
X22098Y37465
X22098Y36195
X26035Y38735
X26035Y40005
X27305Y40005
X28575Y40005
X29845Y40005
X31115Y40005
X53213Y18415
X52832Y16383
X55118Y14351
X24765Y17145
X23495Y17145
X23495Y18415
X24765Y18415
X23495Y15875
X24765Y15875
X23495Y14605
X27305Y13335
X28575Y13335
X31115Y13335
X34925Y13335
X18669Y39116
X23495Y31115
X23495Y29845
X24765Y29845
X24765Y32258
X23495Y32258
X23495Y26035
X19685Y41275
X13081Y8128
X40005Y37465
X41275Y37465
X46355Y37465
X46355Y38735
X47625Y38735
X47625Y37465
X48895Y37465
X50165Y37465
X48895Y36195
X48895Y34925
X48895Y33655
X50165Y33655
X48895Y32385
X48895Y31115
X48895Y29845
X48895Y28575
X48895Y27305
X48895Y38735
X50165Y38735
X41275Y38735
X45085Y38735
X7427Y9210
X7481Y11037
X15240Y11646
X90043Y68453
M30